<svg width="540" height="345" viewBox="0 0 540 345" fill="none" xmlns="http://www.w3.org/2000/svg">
<g filter="url(#filter0_d_18_1705)">
<rect x="20" y="16" width="500" height="305" rx="8" fill="white" shape-rendering="crispEdges"/>
<path d="M225.913 63.2661H224.183L224.172 62.3745H225.714C225.947 62.3745 226.144 62.3441 226.305 62.2832C226.466 62.2223 226.588 62.1346 226.67 62.02C226.756 61.9019 226.799 61.7586 226.799 61.5903C226.799 61.4006 226.758 61.2448 226.675 61.123C226.593 61.0013 226.469 60.9136 226.305 60.8599C226.14 60.8026 225.936 60.7739 225.692 60.7739H224.618V66H223.324V59.7427H225.623C226.009 59.7427 226.353 59.7785 226.654 59.8501C226.958 59.9181 227.218 60.022 227.433 60.1616C227.647 60.3013 227.81 60.4803 227.921 60.6987C228.036 60.9136 228.093 61.1678 228.093 61.4614C228.093 61.7157 228.029 61.952 227.9 62.1704C227.775 62.3888 227.581 62.5661 227.32 62.7021C227.058 62.8382 226.72 62.9134 226.305 62.9277L225.913 63.2661ZM225.854 66H223.818L224.344 64.9741H225.854C226.104 64.9741 226.31 64.9383 226.471 64.8667C226.636 64.7951 226.758 64.6984 226.836 64.5767C226.915 64.4513 226.955 64.3081 226.955 64.147C226.955 63.9679 226.919 63.814 226.847 63.6851C226.779 63.5526 226.668 63.4505 226.514 63.3789C226.36 63.3037 226.16 63.2661 225.913 63.2661H224.591L224.597 62.3745H226.272L226.568 62.7236C226.965 62.7165 227.288 62.7863 227.535 62.9331C227.782 63.0763 227.963 63.2625 228.077 63.4917C228.195 63.7209 228.254 63.959 228.254 64.2061C228.254 64.5104 228.201 64.7754 228.093 65.001C227.986 65.223 227.83 65.4092 227.626 65.5596C227.422 65.7064 227.171 65.8174 226.874 65.8926C226.577 65.9642 226.237 66 225.854 66ZM231.725 59.7427V66H230.425V59.7427H231.725ZM236.104 66H234.643L234.653 64.9741H236.104C236.515 64.9741 236.852 64.8989 237.113 64.7485C237.375 64.5946 237.566 64.3726 237.688 64.0825C237.813 63.7925 237.876 63.4398 237.876 63.0244V62.7129C237.876 62.4014 237.84 62.1257 237.769 61.8857C237.701 61.6423 237.595 61.4382 237.452 61.2734C237.308 61.1087 237.126 60.9852 236.904 60.9028C236.685 60.8169 236.426 60.7739 236.125 60.7739H234.616V59.7427H236.125C236.573 59.7427 236.983 59.8143 237.355 59.9575C237.731 60.1007 238.053 60.3049 238.322 60.5698C238.594 60.8312 238.803 61.1445 238.95 61.5098C239.101 61.875 239.176 62.2796 239.176 62.7236V63.0244C239.176 63.6152 239.045 64.1344 238.784 64.582C238.526 65.0296 238.166 65.3787 237.704 65.6294C237.246 65.8765 236.712 66 236.104 66ZM235.373 59.7427V66H234.079V59.7427H235.373ZM250.43 62.7236V63.0244C250.43 63.5007 250.362 63.9268 250.226 64.3027C250.09 64.6787 249.897 65.001 249.646 65.2695C249.399 65.5345 249.102 65.7368 248.754 65.8765C248.407 66.0161 248.024 66.0859 247.605 66.0859C247.186 66.0859 246.803 66.0161 246.456 65.8765C246.108 65.7368 245.807 65.5345 245.553 65.2695C245.299 65.001 245.102 64.6787 244.962 64.3027C244.826 63.9268 244.758 63.5007 244.758 63.0244V62.7236C244.758 62.2474 244.826 61.8213 244.962 61.4453C245.102 61.0693 245.297 60.7471 245.548 60.4785C245.799 60.21 246.097 60.0059 246.445 59.8662C246.792 59.7266 247.175 59.6567 247.594 59.6567C248.017 59.6567 248.4 59.7266 248.744 59.8662C249.091 60.0059 249.39 60.21 249.641 60.4785C249.895 60.7471 250.09 61.0693 250.226 61.4453C250.362 61.8213 250.43 62.2474 250.43 62.7236ZM249.136 63.0244V62.7129C249.136 62.387 249.102 62.0988 249.034 61.8481C248.966 61.5975 248.864 61.3862 248.728 61.2144C248.595 61.0425 248.434 60.9118 248.244 60.8223C248.054 60.7327 247.838 60.688 247.594 60.688C247.354 60.688 247.138 60.7327 246.944 60.8223C246.755 60.9118 246.593 61.0425 246.461 61.2144C246.332 61.3862 246.232 61.5975 246.16 61.8481C246.092 62.0988 246.058 62.387 246.058 62.7129V63.0244C246.058 63.3467 246.092 63.6349 246.16 63.8892C246.232 64.1398 246.334 64.3529 246.466 64.5283C246.602 64.7002 246.765 64.8327 246.955 64.9258C247.148 65.0153 247.365 65.0601 247.605 65.0601C247.848 65.0601 248.063 65.0153 248.25 64.9258C248.439 64.8327 248.6 64.7002 248.733 64.5283C248.865 64.3529 248.966 64.1398 249.034 63.8892C249.102 63.6349 249.136 63.3467 249.136 63.0244ZM255.083 63.7925H253.353V62.7612H255.083C255.362 62.7612 255.589 62.7201 255.765 62.6377C255.944 62.5553 256.074 62.4443 256.157 62.3047C256.243 62.1615 256.286 62.0003 256.286 61.8213C256.286 61.6351 256.243 61.4632 256.157 61.3057C256.074 61.1481 255.944 61.021 255.765 60.9243C255.589 60.8241 255.362 60.7739 255.083 60.7739H253.788V66H252.494V59.7427H255.083C255.609 59.7427 256.058 59.8322 256.431 60.0112C256.803 60.1903 257.086 60.4355 257.279 60.7471C257.476 61.055 257.575 61.4095 257.575 61.8105C257.575 62.1113 257.519 62.3835 257.408 62.627C257.297 62.8704 257.134 63.0799 256.919 63.2554C256.705 63.4272 256.443 63.5597 256.135 63.6528C255.827 63.7459 255.476 63.7925 255.083 63.7925ZM262.49 59.7427V66H261.196V59.7427H262.49ZM264.574 59.7427V60.7739H259.139V59.7427H264.574ZM267.803 59.7427V66H266.503V59.7427H267.803ZM270.731 59.7427H271.849L273.659 64.3027L275.463 59.7427H276.581L274.099 66H273.213L270.731 59.7427ZM270.157 59.7427H271.252L271.451 64.2812V66H270.157V59.7427ZM276.065 59.7427H277.166V66H275.872V64.2812L276.065 59.7427ZM280.825 59.7427V66H279.525V59.7427H280.825ZM287.985 64.9741V66H283.243V64.9741H287.985ZM287.899 60.4624L283.796 66H282.894V65.2588L287.029 59.7427H287.899V60.4624ZM287.448 59.7427V60.7739H282.904V59.7427H287.448ZM292.514 61.0264L290.634 66H289.324L291.843 59.7427H292.713L292.514 61.0264ZM294.249 66L292.358 61.0156L292.16 59.7427H293.046L295.56 66H294.249ZM294.168 63.6797V64.6519H290.591V63.6797H294.168ZM299.814 59.7427V66H298.52V59.7427H299.814ZM301.898 59.7427V60.7739H296.463V59.7427H301.898ZM305.127 59.7427V66H303.828V59.7427H305.127ZM312.938 62.7236V63.0244C312.938 63.5007 312.87 63.9268 312.734 64.3027C312.598 64.6787 312.404 65.001 312.154 65.2695C311.907 65.5345 311.61 65.7368 311.262 65.8765C310.915 66.0161 310.532 66.0859 310.113 66.0859C309.694 66.0859 309.311 66.0161 308.963 65.8765C308.616 65.7368 308.315 65.5345 308.061 65.2695C307.807 65.001 307.61 64.6787 307.47 64.3027C307.334 63.9268 307.266 63.5007 307.266 63.0244V62.7236C307.266 62.2474 307.334 61.8213 307.47 61.4453C307.61 61.0693 307.805 60.7471 308.056 60.4785C308.306 60.21 308.605 60.0059 308.953 59.8662C309.3 59.7266 309.683 59.6567 310.102 59.6567C310.525 59.6567 310.908 59.7266 311.251 59.8662C311.599 60.0059 311.898 60.21 312.148 60.4785C312.403 60.7471 312.598 61.0693 312.734 61.4453C312.87 61.8213 312.938 62.2474 312.938 62.7236ZM311.644 63.0244V62.7129C311.644 62.387 311.61 62.0988 311.542 61.8481C311.473 61.5975 311.371 61.3862 311.235 61.2144C311.103 61.0425 310.942 60.9118 310.752 60.8223C310.562 60.7327 310.346 60.688 310.102 60.688C309.862 60.688 309.646 60.7327 309.452 60.8223C309.262 60.9118 309.101 61.0425 308.969 61.2144C308.84 61.3862 308.74 61.5975 308.668 61.8481C308.6 62.0988 308.566 62.387 308.566 62.7129V63.0244C308.566 63.3467 308.6 63.6349 308.668 63.8892C308.74 64.1398 308.842 64.3529 308.974 64.5283C309.11 64.7002 309.273 64.8327 309.463 64.9258C309.656 65.0153 309.873 65.0601 310.113 65.0601C310.356 65.0601 310.571 65.0153 310.757 64.9258C310.947 64.8327 311.108 64.7002 311.241 64.5283C311.373 64.3529 311.473 64.1398 311.542 63.8892C311.61 63.6349 311.644 63.3467 311.644 63.0244ZM320.421 59.7427V66H319.121L316.296 61.687V66H315.001V59.7427H316.296L319.121 64.0557V59.7427H320.421Z" fill="black"/>
<path d="M60.9082 115.933L61.3003 112.743H65.0977V113.817H62.3799L62.2026 115.122C62.5607 114.968 62.9206 114.891 63.2822 114.891C63.9447 114.891 64.4674 115.074 64.8506 115.439C65.2337 115.801 65.4253 116.306 65.4253 116.954C65.4253 117.587 65.2158 118.101 64.7969 118.495C64.3815 118.889 63.8104 119.086 63.0835 119.086C62.4354 119.086 61.8875 118.919 61.4399 118.586C60.9924 118.25 60.756 117.815 60.731 117.281H62.0093C62.0379 117.546 62.1489 117.74 62.3423 117.861C62.5356 117.983 62.7827 118.044 63.0835 118.044C63.4058 118.044 63.66 117.949 63.8462 117.759C64.0324 117.569 64.1255 117.296 64.1255 116.938C64.1255 116.604 64.0199 116.341 63.8086 116.148C63.5973 115.951 63.3127 115.853 62.9546 115.853C62.618 115.853 62.3423 115.922 62.1274 116.062L61.9448 116.186L60.9082 115.933ZM72.0112 116.417C72.0112 117.276 71.8071 117.937 71.3989 118.398C70.9943 118.857 70.4178 119.086 69.6694 119.086C68.939 119.086 68.366 118.864 67.9507 118.42C67.5389 117.976 67.3276 117.33 67.3169 116.481V115.332C67.3169 114.476 67.5192 113.817 67.9238 113.355C68.3285 112.889 68.9067 112.657 69.6587 112.657C70.4071 112.657 70.9854 112.886 71.3936 113.344C71.8018 113.803 72.0076 114.46 72.0112 115.315V116.417ZM70.7007 115.208C70.7007 114.209 70.3534 113.709 69.6587 113.709C68.9819 113.709 68.6346 114.18 68.6167 115.122V116.529C68.6167 117.539 68.9676 118.044 69.6694 118.044C70.3354 118.044 70.6792 117.575 70.7007 116.637V115.208ZM78.6724 116.417C78.6724 117.276 78.4683 117.937 78.0601 118.398C77.6554 118.857 77.0789 119.086 76.3306 119.086C75.6001 119.086 75.0272 118.864 74.6118 118.42C74.2 117.976 73.9888 117.33 73.978 116.481V115.332C73.978 114.476 74.1803 113.817 74.585 113.355C74.9896 112.889 75.5679 112.657 76.3198 112.657C77.0682 112.657 77.6465 112.886 78.0547 113.344C78.4629 113.803 78.6688 114.46 78.6724 115.315V116.417ZM77.3618 115.208C77.3618 114.209 77.0145 113.709 76.3198 113.709C75.6431 113.709 75.2957 114.18 75.2778 115.122V116.529C75.2778 117.539 75.6287 118.044 76.3306 118.044C76.9966 118.044 77.3403 117.575 77.3618 116.637V115.208ZM85.3335 116.417C85.3335 117.276 85.1294 117.937 84.7212 118.398C84.3166 118.857 83.7401 119.086 82.9917 119.086C82.2612 119.086 81.6883 118.864 81.2729 118.42C80.8612 117.976 80.6499 117.33 80.6392 116.481V115.332C80.6392 114.476 80.8415 113.817 81.2461 113.355C81.6507 112.889 82.229 112.657 82.981 112.657C83.7293 112.657 84.3076 112.886 84.7158 113.344C85.124 113.803 85.3299 114.46 85.3335 115.315V116.417ZM84.0229 115.208C84.0229 114.209 83.6756 113.709 82.981 113.709C82.3042 113.709 81.9569 114.18 81.939 115.122V116.529C81.939 117.539 82.2899 118.044 82.9917 118.044C83.6577 118.044 84.0015 117.575 84.0229 116.637V115.208Z" fill="#949494"/>
<path d="M103 115.5H91" stroke="#655B96"/>
<path d="M64.7432 146.865H65.5703V147.918H64.7432V149.25H63.438V147.918H60.4893L60.4355 147.085L63.4111 142.993H64.7432V146.865ZM61.7461 146.865H63.438V144.663L63.3306 144.84L61.7461 146.865ZM72.0112 146.667C72.0112 147.526 71.8071 148.187 71.3989 148.648C70.9943 149.107 70.4178 149.336 69.6694 149.336C68.939 149.336 68.366 149.114 67.9507 148.67C67.5389 148.226 67.3276 147.58 67.3169 146.731V145.582C67.3169 144.726 67.5192 144.067 67.9238 143.605C68.3285 143.139 68.9067 142.907 69.6587 142.907C70.4071 142.907 70.9854 143.136 71.3936 143.594C71.8018 144.053 72.0076 144.71 72.0112 145.565V146.667ZM70.7007 145.458C70.7007 144.459 70.3534 143.959 69.6587 143.959C68.9819 143.959 68.6346 144.43 68.6167 145.372V146.779C68.6167 147.789 68.9676 148.294 69.6694 148.294C70.3354 148.294 70.6792 147.825 70.7007 146.887V145.458ZM78.6724 146.667C78.6724 147.526 78.4683 148.187 78.0601 148.648C77.6554 149.107 77.0789 149.336 76.3306 149.336C75.6001 149.336 75.0272 149.114 74.6118 148.67C74.2 148.226 73.9888 147.58 73.978 146.731V145.582C73.978 144.726 74.1803 144.067 74.585 143.605C74.9896 143.139 75.5679 142.907 76.3198 142.907C77.0682 142.907 77.6465 143.136 78.0547 143.594C78.4629 144.053 78.6688 144.71 78.6724 145.565V146.667ZM77.3618 145.458C77.3618 144.459 77.0145 143.959 76.3198 143.959C75.6431 143.959 75.2957 144.43 75.2778 145.372V146.779C75.2778 147.789 75.6287 148.294 76.3306 148.294C76.9966 148.294 77.3403 147.825 77.3618 146.887V145.458ZM85.3335 146.667C85.3335 147.526 85.1294 148.187 84.7212 148.648C84.3166 149.107 83.7401 149.336 82.9917 149.336C82.2612 149.336 81.6883 149.114 81.2729 148.67C80.8612 148.226 80.6499 147.58 80.6392 146.731V145.582C80.6392 144.726 80.8415 144.067 81.2461 143.605C81.6507 143.139 82.229 142.907 82.981 142.907C83.7293 142.907 84.3076 143.136 84.7158 143.594C85.124 144.053 85.3299 144.71 85.3335 145.565V146.667ZM84.0229 145.458C84.0229 144.459 83.6756 143.959 82.981 143.959C82.3042 143.959 81.9569 144.43 81.939 145.372V146.779C81.939 147.789 82.2899 148.294 82.9917 148.294C83.6577 148.294 84.0015 147.825 84.0229 146.887V145.458Z" fill="#949494"/>
<path d="M103 145.75H91" stroke="#655B96"/>
<path d="M62.106 175.842H62.7935C63.1694 175.842 63.4469 175.765 63.626 175.611C63.8086 175.454 63.8999 175.25 63.8999 174.999C63.8999 174.745 63.8122 174.55 63.6367 174.414C63.4613 174.274 63.2142 174.204 62.8955 174.204C62.6019 174.204 62.362 174.269 62.1758 174.397C61.9896 174.526 61.8965 174.695 61.8965 174.902H60.5913C60.5913 174.383 60.8044 173.962 61.2305 173.64C61.6602 173.318 62.208 173.157 62.874 173.157C63.6009 173.157 64.1702 173.316 64.582 173.635C64.9974 173.95 65.2051 174.387 65.2051 174.945C65.2051 175.228 65.1156 175.49 64.9365 175.729C64.7611 175.969 64.4997 176.156 64.1523 176.288C64.9258 176.507 65.3125 176.993 65.3125 177.749C65.3125 178.311 65.0869 178.759 64.6357 179.092C64.1846 179.421 63.5973 179.586 62.874 179.586C62.1686 179.586 61.5975 179.421 61.1606 179.092C60.7274 178.759 60.5107 178.309 60.5107 177.744H61.8213C61.8213 177.98 61.9233 178.173 62.1274 178.324C62.3315 178.471 62.5947 178.544 62.917 178.544C63.2715 178.544 63.5418 178.465 63.728 178.308C63.9142 178.15 64.0073 177.942 64.0073 177.685C64.0073 177.083 63.5973 176.782 62.7773 176.782H62.106V175.842ZM72.0112 176.917C72.0112 177.776 71.8071 178.437 71.3989 178.898C70.9943 179.357 70.4178 179.586 69.6694 179.586C68.939 179.586 68.366 179.364 67.9507 178.92C67.5389 178.476 67.3276 177.83 67.3169 176.981V175.832C67.3169 174.976 67.5192 174.317 67.9238 173.855C68.3285 173.389 68.9067 173.157 69.6587 173.157C70.4071 173.157 70.9854 173.386 71.3936 173.844C71.8018 174.303 72.0076 174.96 72.0112 175.815V176.917ZM70.7007 175.708C70.7007 174.709 70.3534 174.209 69.6587 174.209C68.9819 174.209 68.6346 174.68 68.6167 175.622V177.029C68.6167 178.039 68.9676 178.544 69.6694 178.544C70.3354 178.544 70.6792 178.075 70.7007 177.137V175.708ZM78.6724 176.917C78.6724 177.776 78.4683 178.437 78.0601 178.898C77.6554 179.357 77.0789 179.586 76.3306 179.586C75.6001 179.586 75.0272 179.364 74.6118 178.92C74.2 178.476 73.9888 177.83 73.978 176.981V175.832C73.978 174.976 74.1803 174.317 74.585 173.855C74.9896 173.389 75.5679 173.157 76.3198 173.157C77.0682 173.157 77.6465 173.386 78.0547 173.844C78.4629 174.303 78.6688 174.96 78.6724 175.815V176.917ZM77.3618 175.708C77.3618 174.709 77.0145 174.209 76.3198 174.209C75.6431 174.209 75.2957 174.68 75.2778 175.622V177.029C75.2778 178.039 75.6287 178.544 76.3306 178.544C76.9966 178.544 77.3403 178.075 77.3618 177.137V175.708ZM85.3335 176.917C85.3335 177.776 85.1294 178.437 84.7212 178.898C84.3166 179.357 83.7401 179.586 82.9917 179.586C82.2612 179.586 81.6883 179.364 81.2729 178.92C80.8612 178.476 80.6499 177.83 80.6392 176.981V175.832C80.6392 174.976 80.8415 174.317 81.2461 173.855C81.6507 173.389 82.229 173.157 82.981 173.157C83.7293 173.157 84.3076 173.386 84.7158 173.844C85.124 174.303 85.3299 174.96 85.3335 175.815V176.917ZM84.0229 175.708C84.0229 174.709 83.6756 174.209 82.981 174.209C82.3042 174.209 81.9569 174.68 81.939 175.622V177.029C81.939 178.039 82.2899 178.544 82.9917 178.544C83.6577 178.544 84.0015 178.075 84.0229 177.137V175.708Z" fill="#949494"/>
<path d="M103 176H91" stroke="#655B96"/>
<path d="M65.4575 209.75H60.6719V208.864L62.9546 206.726C63.5884 206.167 63.9053 205.691 63.9053 205.297C63.9053 205.043 63.8193 204.839 63.6475 204.685C63.4756 204.531 63.2482 204.454 62.9653 204.454C62.6108 204.454 62.3351 204.545 62.1382 204.728C61.9412 204.907 61.8428 205.16 61.8428 205.485H60.5322C60.5322 204.88 60.7524 204.382 61.1929 203.992C61.6369 203.602 62.2188 203.407 62.9385 203.407C63.6439 203.407 64.1989 203.575 64.6035 203.912C65.0081 204.245 65.2104 204.701 65.2104 205.281C65.2104 205.575 65.137 205.86 64.9902 206.135C64.8434 206.411 64.5874 206.728 64.2222 207.086L63.7065 207.575L62.3315 208.708H65.4575V209.75ZM72.0112 207.167C72.0112 208.026 71.8071 208.687 71.3989 209.148C70.9943 209.607 70.4178 209.836 69.6694 209.836C68.939 209.836 68.366 209.614 67.9507 209.17C67.5389 208.726 67.3276 208.08 67.3169 207.231V206.082C67.3169 205.226 67.5192 204.567 67.9238 204.105C68.3285 203.639 68.9067 203.407 69.6587 203.407C70.4071 203.407 70.9854 203.636 71.3936 204.094C71.8018 204.553 72.0076 205.21 72.0112 206.065V207.167ZM70.7007 205.958C70.7007 204.959 70.3534 204.459 69.6587 204.459C68.9819 204.459 68.6346 204.93 68.6167 205.872V207.279C68.6167 208.289 68.9676 208.794 69.6694 208.794C70.3354 208.794 70.6792 208.325 70.7007 207.387V205.958ZM78.6724 207.167C78.6724 208.026 78.4683 208.687 78.0601 209.148C77.6554 209.607 77.0789 209.836 76.3306 209.836C75.6001 209.836 75.0272 209.614 74.6118 209.17C74.2 208.726 73.9888 208.08 73.978 207.231V206.082C73.978 205.226 74.1803 204.567 74.585 204.105C74.9896 203.639 75.5679 203.407 76.3198 203.407C77.0682 203.407 77.6465 203.636 78.0547 204.094C78.4629 204.553 78.6688 205.21 78.6724 206.065V207.167ZM77.3618 205.958C77.3618 204.959 77.0145 204.459 76.3198 204.459C75.6431 204.459 75.2957 204.93 75.2778 205.872V207.279C75.2778 208.289 75.6287 208.794 76.3306 208.794C76.9966 208.794 77.3403 208.325 77.3618 207.387V205.958ZM85.3335 207.167C85.3335 208.026 85.1294 208.687 84.7212 209.148C84.3166 209.607 83.7401 209.836 82.9917 209.836C82.2612 209.836 81.6883 209.614 81.2729 209.17C80.8612 208.726 80.6499 208.08 80.6392 207.231V206.082C80.6392 205.226 80.8415 204.567 81.2461 204.105C81.6507 203.639 82.229 203.407 82.981 203.407C83.7293 203.407 84.3076 203.636 84.7158 204.094C85.124 204.553 85.3299 205.21 85.3335 206.065V207.167ZM84.0229 205.958C84.0229 204.959 83.6756 204.459 82.981 204.459C82.3042 204.459 81.9569 204.93 81.939 205.872V207.279C81.939 208.289 82.2899 208.794 82.9917 208.794C83.6577 208.794 84.0015 208.325 84.0229 207.387V205.958Z" fill="#949494"/>
<path d="M103 206.25H91" stroke="#655B96"/>
<path d="M63.9805 240H62.6753V235.279L60.9834 235.725V234.677L63.8301 233.743H63.9805V240ZM72.0112 237.417C72.0112 238.276 71.8071 238.937 71.3989 239.398C70.9943 239.857 70.4178 240.086 69.6694 240.086C68.939 240.086 68.366 239.864 67.9507 239.42C67.5389 238.976 67.3276 238.33 67.3169 237.481V236.332C67.3169 235.476 67.5192 234.817 67.9238 234.355C68.3285 233.889 68.9067 233.657 69.6587 233.657C70.4071 233.657 70.9854 233.886 71.3936 234.344C71.8018 234.803 72.0076 235.46 72.0112 236.315V237.417ZM70.7007 236.208C70.7007 235.209 70.3534 234.709 69.6587 234.709C68.9819 234.709 68.6346 235.18 68.6167 236.122V237.529C68.6167 238.539 68.9676 239.044 69.6694 239.044C70.3354 239.044 70.6792 238.575 70.7007 237.637V236.208ZM78.6724 237.417C78.6724 238.276 78.4683 238.937 78.0601 239.398C77.6554 239.857 77.0789 240.086 76.3306 240.086C75.6001 240.086 75.0272 239.864 74.6118 239.42C74.2 238.976 73.9888 238.33 73.978 237.481V236.332C73.978 235.476 74.1803 234.817 74.585 234.355C74.9896 233.889 75.5679 233.657 76.3198 233.657C77.0682 233.657 77.6465 233.886 78.0547 234.344C78.4629 234.803 78.6688 235.46 78.6724 236.315V237.417ZM77.3618 236.208C77.3618 235.209 77.0145 234.709 76.3198 234.709C75.6431 234.709 75.2957 235.18 75.2778 236.122V237.529C75.2778 238.539 75.6287 239.044 76.3306 239.044C76.9966 239.044 77.3403 238.575 77.3618 237.637V236.208ZM85.3335 237.417C85.3335 238.276 85.1294 238.937 84.7212 239.398C84.3166 239.857 83.7401 240.086 82.9917 240.086C82.2612 240.086 81.6883 239.864 81.2729 239.42C80.8612 238.976 80.6499 238.33 80.6392 237.481V236.332C80.6392 235.476 80.8415 234.817 81.2461 234.355C81.6507 233.889 82.229 233.657 82.981 233.657C83.7293 233.657 84.3076 233.886 84.7158 234.344C85.124 234.803 85.3299 235.46 85.3335 236.315V237.417ZM84.0229 236.208C84.0229 235.209 83.6756 234.709 82.981 234.709C82.3042 234.709 81.9569 235.18 81.939 236.122V237.529C81.939 238.539 82.2899 239.044 82.9917 239.044C83.6577 239.044 84.0015 238.575 84.0229 237.637V236.208Z" fill="#949494"/>
<path d="M103 236.5H91" stroke="#655B96"/>
<path d="M103 109V253" stroke="#655B96"/>
<path d="M113 233L173.035 218.728L241.417 129L301.773 218.728L359.561 181.827L408.36 145.283L470 173.399" stroke="#21CBE2" stroke-width="2"/>
<path d="M103 253H480" stroke="#655B96"/>
<path d="M115 253V263" stroke="#655B96"/>
<path d="M105.578 271.743L107.388 276.271L109.182 271.743H110.89V278H109.59V276.308L109.725 273.247L107.834 278H106.932L105.046 273.273L105.181 276.308V278H103.881V271.743H105.578ZM118.625 275.014C118.625 275.959 118.366 276.707 117.847 277.259C117.331 277.81 116.649 278.086 115.8 278.086C114.955 278.086 114.27 277.81 113.743 277.259C113.217 276.704 112.954 275.946 112.954 274.987V274.74C112.954 274.124 113.072 273.581 113.308 273.112C113.548 272.64 113.883 272.28 114.312 272.033C114.742 271.782 115.235 271.657 115.79 271.657C116.649 271.657 117.336 271.938 117.852 272.5C118.368 273.059 118.625 273.816 118.625 274.772V275.014ZM117.326 274.729C117.326 274.074 117.191 273.574 116.923 273.23C116.654 272.887 116.277 272.715 115.79 272.715C115.31 272.715 114.934 272.887 114.662 273.23C114.389 273.574 114.253 274.074 114.253 274.729V275.014C114.253 275.651 114.389 276.149 114.662 276.507C114.937 276.861 115.317 277.039 115.8 277.039C116.287 277.039 116.663 276.865 116.928 276.518C117.193 276.167 117.326 275.665 117.326 275.014V274.729ZM126.114 278H124.814L122 273.73V278H120.694V271.743H122L124.814 276.018V271.743H126.114V278Z" fill="#949494"/>
<path d="M175.833 253V263" stroke="#655B96"/>
<path d="M171.772 272.795H169.699V278H168.393V272.795H166.347V271.743H171.772V272.795ZM178.637 271.743V275.862C178.637 276.543 178.406 277.083 177.944 277.484C177.486 277.885 176.865 278.086 176.08 278.086C175.296 278.086 174.675 277.889 174.217 277.495C173.758 277.098 173.529 276.553 173.529 275.862V271.743H174.824V275.868C174.824 276.279 174.936 276.578 175.162 276.765C175.388 276.951 175.694 277.044 176.08 277.044C176.9 277.044 177.318 276.664 177.332 275.905V271.743H178.637ZM184.82 275.293H182.124V276.958H185.282V278H180.819V271.743H185.266V272.795H182.124V274.246H184.82V275.293Z" fill="#949494"/>
<path d="M235.667 253V263" stroke="#655B96"/>
<path d="M230.676 276.394L231.616 271.743H232.883L231.369 278H230.107L228.946 273.526L227.77 278H226.508L224.993 271.743H226.261L227.212 276.405L228.372 271.743H229.521L230.676 276.394ZM238.707 275.293H236.01V276.958H239.169V278H234.705V271.743H239.153V272.795H236.01V274.246H238.707V275.293ZM241.033 278V271.743H243.069C243.656 271.743 244.181 271.866 244.643 272.113C245.108 272.36 245.47 272.709 245.728 273.161C245.986 273.608 246.118 274.117 246.125 274.686V275.014C246.125 275.597 245.996 276.117 245.738 276.571C245.484 277.026 245.121 277.379 244.648 277.629C244.179 277.876 243.644 278 243.042 278H241.033ZM242.339 272.795V276.958H243.037C244.208 276.958 244.804 276.335 244.825 275.089V274.729C244.825 273.469 244.269 272.824 243.155 272.795H242.339Z" fill="#949494"/>
<path d="M296 253V263" stroke="#655B96"/>
<path d="M291.256 272.795H289.183V278H287.878V272.795H285.832V271.743H291.256V272.795ZM298.519 278H297.214V275.449H294.399V278H293.094V271.743H294.399V274.401H297.214V271.743H298.519V278ZM305.814 271.743V275.862C305.814 276.543 305.583 277.083 305.121 277.484C304.663 277.885 304.042 278.086 303.257 278.086C302.473 278.086 301.852 277.889 301.394 277.495C300.935 277.098 300.706 276.553 300.706 275.862V271.743H302V275.868C302 276.279 302.113 276.578 302.339 276.765C302.564 276.951 302.871 277.044 303.257 277.044C304.077 277.044 304.494 276.664 304.509 275.905V271.743H305.814Z" fill="#949494"/>
<path d="M353.333 253V263" stroke="#655B96"/>
<path d="M349.992 275.449H347.317V278H346.012V271.743H350.351V272.795H347.317V274.401H349.992V275.449ZM354.703 275.717H353.505V278H352.2V271.743H354.649C355.43 271.743 356.035 271.907 356.465 272.237C356.894 272.563 357.109 273.03 357.109 273.639C357.109 274.48 356.706 275.064 355.901 275.39L357.372 277.941V278H355.976L354.703 275.717ZM353.505 274.675H354.649C355.036 274.675 355.326 274.591 355.519 274.423C355.713 274.251 355.809 274.025 355.809 273.746C355.809 273.456 355.714 273.225 355.525 273.053C355.339 272.881 355.047 272.795 354.649 272.795H353.505V274.675ZM360.575 278H359.275V271.743H360.575V278Z" fill="#949494"/>
<path d="M410.167 253V263" stroke="#655B96"/>
<path d="M404.499 276.356C404.499 276.12 404.406 275.932 404.22 275.792C404.034 275.649 403.667 275.51 403.119 275.374C402.575 275.237 402.145 275.082 401.83 274.906C401.515 274.731 401.282 274.527 401.131 274.294C400.985 274.058 400.911 273.775 400.911 273.445C400.911 272.923 401.131 272.495 401.572 272.162C402.012 271.825 402.582 271.657 403.28 271.657C404.032 271.657 404.635 271.836 405.09 272.194C405.545 272.552 405.772 273.017 405.772 273.59H404.467C404.467 273.3 404.359 273.073 404.145 272.908C403.93 272.74 403.642 272.656 403.28 272.656C402.94 272.656 402.671 272.726 402.474 272.865C402.277 273.001 402.179 273.184 402.179 273.413C402.179 273.621 402.279 273.793 402.48 273.929C402.684 274.065 403.042 274.195 403.554 274.321C404.345 274.514 404.913 274.77 405.256 275.089C405.6 275.408 405.772 275.821 405.772 276.33C405.772 276.877 405.55 277.307 405.106 277.619C404.662 277.93 404.075 278.086 403.344 278.086C402.85 278.086 402.397 278.004 401.985 277.839C401.577 277.671 401.26 277.434 401.035 277.13C400.809 276.826 400.696 276.471 400.696 276.066H402.007C402.007 276.754 402.465 277.098 403.382 277.098C403.729 277.098 404.001 277.031 404.198 276.899C404.399 276.766 404.499 276.586 404.499 276.356ZM411.606 276.663H409.017L408.507 278H407.191L409.721 271.743H410.919L413.438 278H412.116L411.606 276.663ZM409.399 275.669H411.225L410.312 273.295L409.399 275.669ZM419.766 272.795H417.693V278H416.387V272.795H414.341V271.743H419.766V272.795Z" fill="#949494"/>
<path d="M469.5 253V263" stroke="#655B96"/>
<path d="M463.295 276.356C463.295 276.12 463.202 275.932 463.016 275.792C462.83 275.649 462.463 275.51 461.915 275.374C461.371 275.237 460.941 275.082 460.626 274.906C460.311 274.731 460.078 274.527 459.928 274.294C459.781 274.058 459.708 273.775 459.708 273.445C459.708 272.923 459.928 272.495 460.368 272.162C460.809 271.825 461.378 271.657 462.076 271.657C462.828 271.657 463.431 271.836 463.886 272.194C464.341 272.552 464.568 273.017 464.568 273.59H463.263C463.263 273.3 463.156 273.073 462.941 272.908C462.726 272.74 462.438 272.656 462.076 272.656C461.736 272.656 461.467 272.726 461.271 272.865C461.074 273.001 460.975 273.184 460.975 273.413C460.975 273.621 461.075 273.793 461.276 273.929C461.48 274.065 461.838 274.195 462.35 274.321C463.141 274.514 463.709 274.77 464.053 275.089C464.396 275.408 464.568 275.821 464.568 276.33C464.568 276.877 464.346 277.307 463.902 277.619C463.458 277.93 462.871 278.086 462.141 278.086C461.646 278.086 461.194 278.004 460.782 277.839C460.374 277.671 460.057 277.434 459.831 277.13C459.605 276.826 459.493 276.471 459.493 276.066H460.803C460.803 276.754 461.262 277.098 462.178 277.098C462.526 277.098 462.798 277.031 462.995 276.899C463.195 276.766 463.295 276.586 463.295 276.356ZM471.6 271.743V275.862C471.6 276.543 471.369 277.083 470.907 277.484C470.449 277.885 469.828 278.086 469.043 278.086C468.259 278.086 467.638 277.889 467.18 277.495C466.721 277.098 466.492 276.553 466.492 275.862V271.743H467.787V275.868C467.787 276.279 467.899 276.578 468.125 276.765C468.351 276.951 468.657 277.044 469.043 277.044C469.863 277.044 470.281 276.664 470.295 275.905V271.743H471.6ZM479.201 278H477.901L475.087 273.73V278H473.782V271.743H475.087L477.901 276.018V271.743H479.201V278Z" fill="#949494"/>
</g>
<defs>
<filter id="filter0_d_18_1705" x="0" y="0" width="540" height="345" filterUnits="userSpaceOnUse" color-interpolation-filters="sRGB">
<feFlood flood-opacity="0" result="BackgroundImageFix"/>
<feColorMatrix in="SourceAlpha" type="matrix" values="0 0 0 0 0 0 0 0 0 0 0 0 0 0 0 0 0 0 127 0" result="hardAlpha"/>
<feOffset dy="4"/>
<feGaussianBlur stdDeviation="10"/>
<feComposite in2="hardAlpha" operator="out"/>
<feColorMatrix type="matrix" values="0 0 0 0 0.35498 0 0 0 0 0.279635 0 0 0 0 0.7375 0 0 0 0.3 0"/>
<feBlend mode="normal" in2="BackgroundImageFix" result="effect1_dropShadow_18_1705"/>
<feBlend mode="normal" in="SourceGraphic" in2="effect1_dropShadow_18_1705" result="shape"/>
</filter>
</defs>
</svg>
