<svg width="540" height="360" viewBox="0 0 540 360" fill="none" xmlns="http://www.w3.org/2000/svg">
<g clip-path="url(#clip0_2902_599)">
<g filter="url(#filter0_d_2902_599)">
<path d="M512 16H28C23.5817 16 20 19.5817 20 24V328C20 332.418 23.5817 336 28 336H512C516.418 336 520 332.418 520 328V24C520 19.5817 516.418 16 512 16Z" fill="white"/>
<path d="M63.5928 63.2661H61.8633L61.8525 62.3745H63.394C63.6268 62.3745 63.8237 62.3441 63.9849 62.2832C64.146 62.2223 64.2677 62.1346 64.3501 62.02C64.436 61.9019 64.479 61.7586 64.479 61.5903C64.479 61.4006 64.4378 61.2448 64.3555 61.123C64.2731 61.0013 64.1496 60.9136 63.9849 60.8599C63.8201 60.8026 63.616 60.7739 63.3726 60.7739H62.2983V66H61.0039V59.7427H63.3027C63.6895 59.7427 64.0332 59.7785 64.334 59.8501C64.6383 59.9181 64.8979 60.022 65.1128 60.1616C65.3276 60.3013 65.4906 60.4803 65.6016 60.6987C65.7161 60.9136 65.7734 61.1678 65.7734 61.4614C65.7734 61.7157 65.709 61.952 65.5801 62.1704C65.4548 62.3888 65.2614 62.5661 65 62.7021C64.7386 62.8382 64.4002 62.9134 63.9849 62.9277L63.5928 63.2661ZM63.5337 66H61.498L62.0244 64.9741H63.5337C63.7843 64.9741 63.9902 64.9383 64.1514 64.8667C64.3161 64.7951 64.4378 64.6984 64.5166 64.5767C64.5954 64.4513 64.6348 64.3081 64.6348 64.147C64.6348 63.9679 64.599 63.814 64.5273 63.6851C64.4593 63.5526 64.3483 63.4505 64.1943 63.3789C64.0404 63.3037 63.8398 63.2661 63.5928 63.2661H62.2715L62.2769 62.3745H63.9526L64.248 62.7236C64.6455 62.7165 64.9678 62.7863 65.2148 62.9331C65.4619 63.0763 65.6427 63.2625 65.7573 63.4917C65.8755 63.7209 65.9346 63.959 65.9346 64.2061C65.9346 64.5104 65.8809 64.7754 65.7734 65.001C65.666 65.223 65.5103 65.4092 65.3062 65.5596C65.1021 65.7064 64.8514 65.8174 64.5542 65.8926C64.257 65.9642 63.9168 66 63.5337 66ZM69.4053 59.7427V66H68.1055V59.7427H69.4053ZM73.7837 66H72.3228L72.3335 64.9741H73.7837C74.1955 64.9741 74.5321 64.8989 74.7935 64.7485C75.0549 64.5946 75.2464 64.3726 75.3682 64.0825C75.4935 63.7925 75.5562 63.4398 75.5562 63.0244V62.7129C75.5562 62.4014 75.5203 62.1257 75.4487 61.8857C75.3807 61.6423 75.2751 61.4382 75.1318 61.2734C74.9886 61.1087 74.806 60.9852 74.584 60.9028C74.3656 60.8169 74.106 60.7739 73.8052 60.7739H72.2959V59.7427H73.8052C74.2528 59.7427 74.6628 59.8143 75.0352 59.9575C75.4111 60.1007 75.7334 60.3049 76.002 60.5698C76.2741 60.8312 76.4836 61.1445 76.6304 61.5098C76.7808 61.875 76.856 62.2796 76.856 62.7236V63.0244C76.856 63.6152 76.7253 64.1344 76.4639 64.582C76.2061 65.0296 75.8462 65.3787 75.3843 65.6294C74.9259 65.8765 74.3924 66 73.7837 66ZM73.0532 59.7427V66H71.7588V59.7427H73.0532ZM86.5742 63.916H87.874C87.8418 64.3421 87.7165 64.7181 87.498 65.0439C87.2832 65.3698 86.9824 65.6258 86.5957 65.812C86.209 65.9946 85.7417 66.0859 85.1938 66.0859C84.7677 66.0859 84.3846 66.0161 84.0444 65.8765C83.7078 65.7368 83.4196 65.5381 83.1797 65.2803C82.9434 65.0189 82.7607 64.7038 82.6318 64.335C82.5065 63.9626 82.4438 63.5454 82.4438 63.0835V62.6646C82.4438 62.2026 82.5083 61.7873 82.6372 61.4185C82.7661 61.0461 82.9523 60.7292 83.1958 60.4678C83.4393 60.2028 83.7293 60.0023 84.0659 59.8662C84.4061 59.7266 84.7874 59.6567 85.21 59.6567C85.765 59.6567 86.2323 59.7516 86.6118 59.9414C86.9914 60.1276 87.2868 60.3872 87.498 60.7202C87.7093 61.0532 87.8364 61.4346 87.8794 61.8643H86.585C86.5635 61.6315 86.5044 61.4274 86.4077 61.252C86.311 61.0729 86.166 60.9333 85.9727 60.833C85.7793 60.7327 85.5251 60.6826 85.21 60.6826C84.9665 60.6826 84.7534 60.7256 84.5708 60.8115C84.3882 60.8939 84.2342 61.0192 84.1089 61.1875C83.9871 61.3558 83.894 61.5635 83.8296 61.8105C83.7687 62.054 83.7383 62.3369 83.7383 62.6592V63.0835C83.7383 63.3986 83.7651 63.6797 83.8188 63.9268C83.8761 64.1702 83.9639 64.3761 84.082 64.5444C84.2002 64.7127 84.3506 64.8416 84.5332 64.9312C84.7194 65.0171 84.9396 65.0601 85.1938 65.0601C85.4982 65.0601 85.7471 65.0189 85.9404 64.9365C86.1338 64.8506 86.2824 64.7217 86.3862 64.5498C86.4901 64.3779 86.5527 64.1667 86.5742 63.916ZM95.2979 62.7236V63.0244C95.2979 63.5007 95.2298 63.9268 95.0938 64.3027C94.9577 64.6787 94.7643 65.001 94.5137 65.2695C94.2666 65.5345 93.9694 65.7368 93.6221 65.8765C93.2747 66.0161 92.8916 66.0859 92.4727 66.0859C92.0537 66.0859 91.6706 66.0161 91.3232 65.8765C90.9759 65.7368 90.6751 65.5345 90.4209 65.2695C90.1667 65.001 89.9697 64.6787 89.8301 64.3027C89.694 63.9268 89.626 63.5007 89.626 63.0244V62.7236C89.626 62.2474 89.694 61.8213 89.8301 61.4453C89.9697 61.0693 90.1649 60.7471 90.4155 60.4785C90.6662 60.21 90.9652 60.0059 91.3125 59.8662C91.6598 59.7266 92.043 59.6567 92.4619 59.6567C92.8844 59.6567 93.2676 59.7266 93.6113 59.8662C93.9587 60.0059 94.2576 60.21 94.5083 60.4785C94.7625 60.7471 94.9577 61.0693 95.0938 61.4453C95.2298 61.8213 95.2979 62.2474 95.2979 62.7236ZM94.0034 63.0244V62.7129C94.0034 62.387 93.9694 62.0988 93.9014 61.8481C93.8333 61.5975 93.7313 61.3862 93.5952 61.2144C93.4627 61.0425 93.3016 60.9118 93.1118 60.8223C92.922 60.7327 92.7054 60.688 92.4619 60.688C92.222 60.688 92.0054 60.7327 91.812 60.8223C91.6222 60.9118 91.4611 61.0425 91.3286 61.2144C91.1997 61.3862 91.0994 61.5975 91.0278 61.8481C90.9598 62.0988 90.9258 62.387 90.9258 62.7129V63.0244C90.9258 63.3467 90.9598 63.6349 91.0278 63.8892C91.0994 64.1398 91.2015 64.3529 91.334 64.5283C91.4701 64.7002 91.633 64.8327 91.8228 64.9258C92.0161 65.0153 92.2327 65.0601 92.4727 65.0601C92.7161 65.0601 92.931 65.0153 93.1172 64.9258C93.307 64.8327 93.4681 64.7002 93.6006 64.5283C93.7331 64.3529 93.8333 64.1398 93.9014 63.8892C93.9694 63.6349 94.0034 63.3467 94.0034 63.0244ZM102.818 62.7236V63.0244C102.818 63.5007 102.75 63.9268 102.614 64.3027C102.478 64.6787 102.285 65.001 102.034 65.2695C101.787 65.5345 101.49 65.7368 101.143 65.8765C100.795 66.0161 100.412 66.0859 99.9932 66.0859C99.5742 66.0859 99.1911 66.0161 98.8438 65.8765C98.4964 65.7368 98.1956 65.5345 97.9414 65.2695C97.6872 65.001 97.4902 64.6787 97.3506 64.3027C97.2145 63.9268 97.1465 63.5007 97.1465 63.0244V62.7236C97.1465 62.2474 97.2145 61.8213 97.3506 61.4453C97.4902 61.0693 97.6854 60.7471 97.936 60.4785C98.1867 60.21 98.4857 60.0059 98.833 59.8662C99.1803 59.7266 99.5635 59.6567 99.9824 59.6567C100.405 59.6567 100.788 59.7266 101.132 59.8662C101.479 60.0059 101.778 60.21 102.029 60.4785C102.283 60.7471 102.478 61.0693 102.614 61.4453C102.75 61.8213 102.818 62.2474 102.818 62.7236ZM101.524 63.0244V62.7129C101.524 62.387 101.49 62.0988 101.422 61.8481C101.354 61.5975 101.252 61.3862 101.116 61.2144C100.983 61.0425 100.822 60.9118 100.632 60.8223C100.443 60.7327 100.226 60.688 99.9824 60.688C99.7425 60.688 99.5259 60.7327 99.3325 60.8223C99.1427 60.9118 98.9816 61.0425 98.8491 61.2144C98.7202 61.3862 98.62 61.5975 98.5483 61.8481C98.4803 62.0988 98.4463 62.387 98.4463 62.7129V63.0244C98.4463 63.3467 98.4803 63.6349 98.5483 63.8892C98.62 64.1398 98.722 64.3529 98.8545 64.5283C98.9906 64.7002 99.1535 64.8327 99.3433 64.9258C99.5366 65.0153 99.7533 65.0601 99.9932 65.0601C100.237 65.0601 100.451 65.0153 100.638 64.9258C100.827 64.8327 100.989 64.7002 101.121 64.5283C101.254 64.3529 101.354 64.1398 101.422 63.8892C101.49 63.6349 101.524 63.3467 101.524 63.0244ZM104.876 59.7427H107.342C107.725 59.7427 108.069 59.7839 108.373 59.8662C108.677 59.9486 108.935 60.0703 109.146 60.2314C109.361 60.389 109.524 60.5859 109.635 60.8223C109.75 61.055 109.807 61.3254 109.807 61.6333C109.807 61.9735 109.746 62.2653 109.625 62.5088C109.503 62.7487 109.331 62.9474 109.109 63.105C108.887 63.2625 108.625 63.3896 108.325 63.4863L107.911 63.7119H105.736L105.725 62.6807H107.358C107.616 62.6807 107.829 62.6413 107.997 62.5625C108.165 62.4837 108.292 62.3745 108.378 62.2349C108.464 62.0916 108.507 61.9269 108.507 61.7407C108.507 61.5438 108.464 61.3737 108.378 61.2305C108.296 61.0837 108.167 60.9709 107.992 60.8921C107.82 60.8133 107.603 60.7739 107.342 60.7739H106.176V66H104.876V59.7427ZM108.668 66L107.122 63.2285L108.491 63.2178L110.065 65.9409V66H108.668ZM113.944 66H112.483L112.494 64.9741H113.944C114.356 64.9741 114.692 64.8989 114.954 64.7485C115.215 64.5946 115.407 64.3726 115.528 64.0825C115.654 63.7925 115.716 63.4398 115.716 63.0244V62.7129C115.716 62.4014 115.681 62.1257 115.609 61.8857C115.541 61.6423 115.435 61.4382 115.292 61.2734C115.149 61.1087 114.966 60.9852 114.744 60.9028C114.526 60.8169 114.266 60.7739 113.965 60.7739H112.456V59.7427H113.965C114.413 59.7427 114.823 59.8143 115.195 59.9575C115.571 60.1007 115.894 60.3049 116.162 60.5698C116.434 60.8312 116.644 61.1445 116.791 61.5098C116.941 61.875 117.016 62.2796 117.016 62.7236V63.0244C117.016 63.6152 116.885 64.1344 116.624 64.582C116.366 65.0296 116.006 65.3787 115.544 65.6294C115.086 65.8765 114.553 66 113.944 66ZM113.213 59.7427V66H111.919V59.7427H113.213ZM120.46 59.7427V66H119.16V59.7427H120.46ZM128.233 59.7427V66H126.933L124.108 61.687V66H122.813V59.7427H124.108L126.933 64.0557V59.7427H128.233ZM133.095 61.0264L131.215 66H129.904L132.423 59.7427H133.293L133.095 61.0264ZM134.83 66L132.939 61.0156L132.74 59.7427H133.626L136.14 66H134.83ZM134.749 63.6797V64.6519H131.172V63.6797H134.749ZM140.395 59.7427V66H139.101V59.7427H140.395ZM142.479 59.7427V60.7739H137.043V59.7427H142.479ZM145.708 59.7427V66H144.408V59.7427H145.708ZM153.519 62.7236V63.0244C153.519 63.5007 153.451 63.9268 153.314 64.3027C153.178 64.6787 152.985 65.001 152.734 65.2695C152.487 65.5345 152.19 65.7368 151.843 65.8765C151.495 66.0161 151.112 66.0859 150.693 66.0859C150.274 66.0859 149.891 66.0161 149.544 65.8765C149.197 65.7368 148.896 65.5345 148.642 65.2695C148.387 65.001 148.19 64.6787 148.051 64.3027C147.915 63.9268 147.847 63.5007 147.847 63.0244V62.7236C147.847 62.2474 147.915 61.8213 148.051 61.4453C148.19 61.0693 148.386 60.7471 148.636 60.4785C148.887 60.21 149.186 60.0059 149.533 59.8662C149.881 59.7266 150.264 59.6567 150.683 59.6567C151.105 59.6567 151.488 59.7266 151.832 59.8662C152.179 60.0059 152.478 60.21 152.729 60.4785C152.983 60.7471 153.178 61.0693 153.314 61.4453C153.451 61.8213 153.519 62.2474 153.519 62.7236ZM152.224 63.0244V62.7129C152.224 62.387 152.19 62.0988 152.122 61.8481C152.054 61.5975 151.952 61.3862 151.816 61.2144C151.683 61.0425 151.522 60.9118 151.333 60.8223C151.143 60.7327 150.926 60.688 150.683 60.688C150.443 60.688 150.226 60.7327 150.033 60.8223C149.843 60.9118 149.682 61.0425 149.549 61.2144C149.42 61.3862 149.32 61.5975 149.249 61.8481C149.181 62.0988 149.146 62.387 149.146 62.7129V63.0244C149.146 63.3467 149.181 63.6349 149.249 63.8892C149.32 64.1398 149.422 64.3529 149.555 64.5283C149.691 64.7002 149.854 64.8327 150.043 64.9258C150.237 65.0153 150.453 65.0601 150.693 65.0601C150.937 65.0601 151.152 65.0153 151.338 64.9258C151.528 64.8327 151.689 64.7002 151.821 64.5283C151.954 64.3529 152.054 64.1398 152.122 63.8892C152.19 63.6349 152.224 63.3467 152.224 63.0244ZM161.001 59.7427V66H159.702L156.876 61.687V66H155.582V59.7427H156.876L159.702 64.0557V59.7427H161.001Z" fill="black"/>
<path d="M63.9805 119H62.6753V114.279L60.9834 114.725V113.677L63.8301 112.743H63.9805V119ZM72.0112 116.417C72.0112 117.276 71.8071 117.937 71.3989 118.398C70.9943 118.857 70.4178 119.086 69.6694 119.086C68.939 119.086 68.366 118.864 67.9507 118.42C67.5389 117.976 67.3276 117.33 67.3169 116.481V115.332C67.3169 114.476 67.5192 113.817 67.9238 113.355C68.3285 112.889 68.9067 112.657 69.6587 112.657C70.4071 112.657 70.9854 112.886 71.3936 113.344C71.8018 113.803 72.0076 114.46 72.0112 115.315V116.417ZM70.7007 115.208C70.7007 114.209 70.3534 113.709 69.6587 113.709C68.9819 113.709 68.6346 114.18 68.6167 115.122V116.529C68.6167 117.539 68.9676 118.044 69.6694 118.044C70.3354 118.044 70.6792 117.575 70.7007 116.637V115.208ZM78.6724 116.417C78.6724 117.276 78.4683 117.937 78.0601 118.398C77.6554 118.857 77.0789 119.086 76.3306 119.086C75.6001 119.086 75.0272 118.864 74.6118 118.42C74.2 117.976 73.9888 117.33 73.978 116.481V115.332C73.978 114.476 74.1803 113.817 74.585 113.355C74.9896 112.889 75.5679 112.657 76.3198 112.657C77.0682 112.657 77.6465 112.886 78.0547 113.344C78.4629 113.803 78.6688 114.46 78.6724 115.315V116.417ZM77.3618 115.208C77.3618 114.209 77.0145 113.709 76.3198 113.709C75.6431 113.709 75.2957 114.18 75.2778 115.122V116.529C75.2778 117.539 75.6287 118.044 76.3306 118.044C76.9966 118.044 77.3403 117.575 77.3618 116.637V115.208ZM85.3335 116.417C85.3335 117.276 85.1294 117.937 84.7212 118.398C84.3166 118.857 83.7401 119.086 82.9917 119.086C82.2612 119.086 81.6883 118.864 81.2729 118.42C80.8612 117.976 80.6499 117.33 80.6392 116.481V115.332C80.6392 114.476 80.8415 113.817 81.2461 113.355C81.6507 112.889 82.229 112.657 82.981 112.657C83.7293 112.657 84.3076 112.886 84.7158 113.344C85.124 113.803 85.3299 114.46 85.3335 115.315V116.417ZM84.0229 115.208C84.0229 114.209 83.6756 113.709 82.981 113.709C82.3042 113.709 81.9569 114.18 81.939 115.122V116.529C81.939 117.539 82.2899 118.044 82.9917 118.044C83.6577 118.044 84.0015 117.575 84.0229 116.637V115.208Z" fill="#949494"/>
<path d="M103 115.5H91" stroke="#655B96"/>
<path d="M72.0249 148.413C72.0249 148.717 71.9425 148.988 71.7778 149.224C71.6131 149.457 71.3857 149.643 71.0957 149.783C71.4323 149.926 71.6973 150.126 71.8906 150.384C72.084 150.639 72.1807 150.939 72.1807 151.287C72.1807 151.842 71.9676 152.28 71.5415 152.603C71.1154 152.925 70.5461 153.086 69.8335 153.086C69.1245 153.086 68.5552 152.927 68.1255 152.608C67.6958 152.286 67.481 151.845 67.481 151.287C67.481 150.936 67.5776 150.633 67.771 150.379C67.9644 150.121 68.2293 149.921 68.5659 149.777C68.2759 149.638 68.0485 149.451 67.8838 149.219C67.7191 148.986 67.6367 148.717 67.6367 148.413C67.6367 147.869 67.8354 147.441 68.2329 147.129C68.6304 146.814 69.1603 146.657 69.8228 146.657C70.4888 146.657 71.0223 146.812 71.4233 147.124C71.8244 147.436 72.0249 147.865 72.0249 148.413ZM70.8755 151.185C70.8755 150.92 70.7788 150.71 70.5854 150.556C70.3957 150.402 70.1414 150.325 69.8228 150.325C69.5076 150.325 69.2552 150.402 69.0654 150.556C68.8792 150.707 68.7861 150.916 68.7861 151.185C68.7861 151.453 68.8792 151.664 69.0654 151.818C69.2552 151.969 69.5112 152.044 69.8335 152.044C70.1486 152.044 70.401 151.969 70.5908 151.818C70.7806 151.664 70.8755 151.453 70.8755 151.185ZM70.7251 148.483C70.7251 148.247 70.6445 148.059 70.4834 147.919C70.3223 147.776 70.1021 147.704 69.8228 147.704C69.547 147.704 69.3304 147.774 69.1729 147.914C69.0189 148.05 68.9419 148.239 68.9419 148.483C68.9419 148.723 69.0207 148.916 69.1782 149.063C69.3358 149.206 69.5542 149.278 69.8335 149.278C70.1128 149.278 70.3312 149.206 70.4888 149.063C70.6463 148.916 70.7251 148.723 70.7251 148.483ZM78.8418 150.417C78.8418 151.276 78.6377 151.937 78.2295 152.398C77.8249 152.857 77.2484 153.086 76.5 153.086C75.7695 153.086 75.1966 152.864 74.7812 152.42C74.3695 151.976 74.1582 151.33 74.1475 150.481V149.332C74.1475 148.476 74.3498 147.817 74.7544 147.355C75.159 146.889 75.7373 146.657 76.4893 146.657C77.2376 146.657 77.8159 146.886 78.2241 147.344C78.6323 147.803 78.8382 148.46 78.8418 149.315V150.417ZM77.5312 149.208C77.5312 148.209 77.1839 147.709 76.4893 147.709C75.8125 147.709 75.4652 148.18 75.4473 149.122V150.529C75.4473 151.539 75.7982 152.044 76.5 152.044C77.166 152.044 77.5098 151.575 77.5312 150.637V149.208ZM85.5029 150.417C85.5029 151.276 85.2988 151.937 84.8906 152.398C84.486 152.857 83.9095 153.086 83.1611 153.086C82.4307 153.086 81.8577 152.864 81.4424 152.42C81.0306 151.976 80.8193 151.33 80.8086 150.481V149.332C80.8086 148.476 81.0109 147.817 81.4155 147.355C81.8201 146.889 82.3984 146.657 83.1504 146.657C83.8988 146.657 84.4771 146.886 84.8853 147.344C85.2935 147.803 85.4993 148.46 85.5029 149.315V150.417ZM84.1924 149.208C84.1924 148.209 83.8451 147.709 83.1504 147.709C82.4736 147.709 82.1263 148.18 82.1084 149.122V150.529C82.1084 151.539 82.4593 152.044 83.1611 152.044C83.8271 152.044 84.1709 151.575 84.1924 150.637V149.208Z" fill="#949494"/>
<path d="M103 149.5H91" stroke="#655B96"/>
<path d="M71.2407 180.673V181.742C70.4601 181.742 69.8818 181.883 69.5059 182.166C69.1299 182.445 68.9115 182.866 68.8506 183.428C69.2337 183.038 69.7135 182.843 70.29 182.843C70.9095 182.843 71.3983 183.033 71.7563 183.412C72.1144 183.792 72.2935 184.3 72.2935 184.938C72.2935 185.564 72.0804 186.08 71.6543 186.484C71.2282 186.885 70.6642 187.086 69.9624 187.086C69.2176 187.086 68.625 186.864 68.1846 186.42C67.7477 185.972 67.5293 185.351 67.5293 184.556V184.169C67.5293 183.056 67.8265 182.198 68.4209 181.597C69.0189 180.995 69.8765 180.687 70.9937 180.673H71.2407ZM69.9409 183.885C69.6831 183.885 69.4575 183.94 69.2642 184.051C69.0708 184.159 68.9276 184.293 68.8345 184.454V184.701C68.8345 185.117 68.9329 185.444 69.1299 185.684C69.3268 185.924 69.5954 186.044 69.9355 186.044C70.2542 186.044 70.5103 185.942 70.7036 185.738C70.9006 185.53 70.999 185.267 70.999 184.948C70.999 184.622 70.9041 184.365 70.7144 184.175C70.5282 183.981 70.2703 183.885 69.9409 183.885ZM78.8364 184.417C78.8364 185.276 78.6323 185.937 78.2241 186.398C77.8195 186.857 77.243 187.086 76.4946 187.086C75.7642 187.086 75.1912 186.864 74.7759 186.42C74.3641 185.976 74.1528 185.33 74.1421 184.481V183.332C74.1421 182.476 74.3444 181.817 74.749 181.355C75.1536 180.889 75.7319 180.657 76.4839 180.657C77.2323 180.657 77.8105 180.886 78.2188 181.344C78.627 181.803 78.8328 182.46 78.8364 183.315V184.417ZM77.5259 183.208C77.5259 182.209 77.1785 181.709 76.4839 181.709C75.8071 181.709 75.4598 182.18 75.4419 183.122V184.529C75.4419 185.539 75.7928 186.044 76.4946 186.044C77.1606 186.044 77.5044 185.575 77.5259 184.637V183.208ZM85.4976 184.417C85.4976 185.276 85.2935 185.937 84.8853 186.398C84.4806 186.857 83.9041 187.086 83.1558 187.086C82.4253 187.086 81.8524 186.864 81.437 186.42C81.0252 185.976 80.814 185.33 80.8032 184.481V183.332C80.8032 182.476 81.0055 181.817 81.4102 181.355C81.8148 180.889 82.3931 180.657 83.145 180.657C83.8934 180.657 84.4717 180.886 84.8799 181.344C85.2881 181.803 85.494 182.46 85.4976 183.315V184.417ZM84.187 183.208C84.187 182.209 83.8397 181.709 83.145 181.709C82.4683 181.709 82.1209 182.18 82.103 183.122V184.529C82.103 185.539 82.4539 186.044 83.1558 186.044C83.8218 186.044 84.1655 185.575 84.187 184.637V183.208Z" fill="#949494"/>
<path d="M103 183.5H91" stroke="#655B96"/>
<path d="M71.5737 218.615H72.4009V219.668H71.5737V221H70.2686V219.668H67.3198L67.2661 218.835L70.2417 214.743H71.5737V218.615ZM68.5767 218.615H70.2686V216.413L70.1611 216.59L68.5767 218.615ZM78.8418 218.417C78.8418 219.276 78.6377 219.937 78.2295 220.398C77.8249 220.857 77.2484 221.086 76.5 221.086C75.7695 221.086 75.1966 220.864 74.7812 220.42C74.3695 219.976 74.1582 219.33 74.1475 218.481V217.332C74.1475 216.476 74.3498 215.817 74.7544 215.355C75.159 214.889 75.7373 214.657 76.4893 214.657C77.2376 214.657 77.8159 214.886 78.2241 215.344C78.6323 215.803 78.8382 216.46 78.8418 217.315V218.417ZM77.5312 217.208C77.5312 216.209 77.1839 215.709 76.4893 215.709C75.8125 215.709 75.4652 216.18 75.4473 217.122V218.529C75.4473 219.539 75.7982 220.044 76.5 220.044C77.166 220.044 77.5098 219.575 77.5312 218.637V217.208ZM85.5029 218.417C85.5029 219.276 85.2988 219.937 84.8906 220.398C84.486 220.857 83.9095 221.086 83.1611 221.086C82.4307 221.086 81.8577 220.864 81.4424 220.42C81.0306 219.976 80.8193 219.33 80.8086 218.481V217.332C80.8086 216.476 81.0109 215.817 81.4155 215.355C81.8201 214.889 82.3984 214.657 83.1504 214.657C83.8988 214.657 84.4771 214.886 84.8853 215.344C85.2935 215.803 85.4993 216.46 85.5029 217.315V218.417ZM84.1924 217.208C84.1924 216.209 83.8451 215.709 83.1504 215.709C82.4736 215.709 82.1263 216.18 82.1084 217.122V218.529C82.1084 219.539 82.4593 220.044 83.1611 220.044C83.8271 220.044 84.1709 219.575 84.1924 218.637V217.208Z" fill="#949494"/>
<path d="M103 217.5H91" stroke="#655B96"/>
<path d="M72.2881 255H67.5024V254.114L69.7852 251.976C70.4189 251.417 70.7358 250.941 70.7358 250.547C70.7358 250.293 70.6499 250.089 70.478 249.935C70.3062 249.781 70.0788 249.704 69.7959 249.704C69.4414 249.704 69.1657 249.795 68.9688 249.978C68.7718 250.157 68.6733 250.41 68.6733 250.735H67.3628C67.3628 250.13 67.583 249.632 68.0234 249.242C68.4674 248.852 69.0493 248.657 69.769 248.657C70.4744 248.657 71.0295 248.825 71.4341 249.162C71.8387 249.495 72.041 249.951 72.041 250.531C72.041 250.825 71.9676 251.11 71.8208 251.385C71.674 251.661 71.418 251.978 71.0527 252.336L70.5371 252.825L69.1621 253.958H72.2881V255ZM78.8418 252.417C78.8418 253.276 78.6377 253.937 78.2295 254.398C77.8249 254.857 77.2484 255.086 76.5 255.086C75.7695 255.086 75.1966 254.864 74.7812 254.42C74.3695 253.976 74.1582 253.33 74.1475 252.481V251.332C74.1475 250.476 74.3498 249.817 74.7544 249.355C75.159 248.889 75.7373 248.657 76.4893 248.657C77.2376 248.657 77.8159 248.886 78.2241 249.344C78.6323 249.803 78.8382 250.46 78.8418 251.315V252.417ZM77.5312 251.208C77.5312 250.209 77.1839 249.709 76.4893 249.709C75.8125 249.709 75.4652 250.18 75.4473 251.122V252.529C75.4473 253.539 75.7982 254.044 76.5 254.044C77.166 254.044 77.5098 253.575 77.5312 252.637V251.208ZM85.5029 252.417C85.5029 253.276 85.2988 253.937 84.8906 254.398C84.486 254.857 83.9095 255.086 83.1611 255.086C82.4307 255.086 81.8577 254.864 81.4424 254.42C81.0306 253.976 80.8193 253.33 80.8086 252.481V251.332C80.8086 250.476 81.0109 249.817 81.4155 249.355C81.8201 248.889 82.3984 248.657 83.1504 248.657C83.8988 248.657 84.4771 248.886 84.8853 249.344C85.2935 249.803 85.4993 250.46 85.5029 251.315V252.417ZM84.1924 251.208C84.1924 250.209 83.8451 249.709 83.1504 249.709C82.4736 249.709 82.1263 250.18 82.1084 251.122V252.529C82.1084 253.539 82.4593 254.044 83.1611 254.044C83.8271 254.044 84.1709 253.575 84.1924 252.637V251.208Z" fill="#949494"/>
<path d="M103 251.5H91" stroke="#655B96"/>
<path d="M103 109V268" stroke="#655B96"/>
<path d="M115.964 207.69H111V268H115.964V207.69Z" fill="#7B61FF"/>
<path d="M148.332 162.261H143.368V268H148.332V162.261Z" fill="#7B61FF"/>
<path d="M180.699 180.276H175.735V268H180.699V180.276Z" fill="#7B61FF"/>
<path d="M213.067 180.276H208.103V268H213.067V180.276Z" fill="#7B61FF"/>
<path d="M245.435 201.424H240.471V268H245.435V201.424Z" fill="#7B61FF"/>
<path d="M277.802 143.463H272.838V268H277.802V143.463Z" fill="#7B61FF"/>
<path d="M310.17 133.281H305.206V268H310.17V133.281Z" fill="#7B61FF"/>
<path d="M342.538 213.956H337.574V268H342.538V213.956Z" fill="#7B61FF"/>
<path d="M374.905 139.547H369.941V268H374.905V139.547Z" fill="#7B61FF"/>
<path d="M407.273 155.212H402.309V268H407.273V155.212Z" fill="#7B61FF"/>
<path d="M439.641 119.965H434.677V267.999H439.641V119.965Z" fill="#7B61FF"/>
<path d="M472 109H467.044V268H472V109Z" fill="#7B61FF"/>
<path d="M103 268H480" stroke="#655B96"/>
<path d="M113.5 268V278" stroke="#655B96"/>
<path d="M106.699 286.743H108.004V291.04C108.004 291.663 107.8 292.16 107.392 292.533C106.987 292.902 106.466 293.086 105.829 293.086C105.106 293.086 104.542 292.914 104.137 292.57C103.736 292.227 103.536 291.741 103.536 291.115H104.846C104.846 291.734 105.174 292.044 105.829 292.044C106.098 292.044 106.309 291.96 106.463 291.792C106.62 291.623 106.699 291.373 106.699 291.04V286.743ZM114.08 291.663H111.491L110.981 293H109.665L112.195 286.743H113.393L115.912 293H114.59L114.08 291.663ZM111.873 290.669H113.699L112.786 288.295L111.873 290.669ZM123.019 293H121.719L118.904 288.73V293H117.599V286.743H118.904L121.719 291.018V286.743H123.019V293Z" fill="#949494"/>
<path d="M144.955 268V278" stroke="#655B96"/>
<path d="M140.302 290.449H137.627V293H136.322V286.743H140.662V287.795H137.627V289.401H140.302V290.449ZM146.512 290.293H143.816V291.958H146.974V293H142.511V286.743H146.958V287.795H143.816V289.246H146.512V290.293ZM148.839 293V286.743H151.154C151.949 286.743 152.556 286.891 152.975 287.188C153.397 287.482 153.608 287.908 153.608 288.467C153.608 288.75 153.528 289.009 153.367 289.246C153.209 289.478 152.967 289.657 152.642 289.783C152.985 289.865 153.257 290.035 153.458 290.293C153.658 290.547 153.759 290.852 153.759 291.206C153.759 291.79 153.556 292.236 153.152 292.543C152.747 292.848 152.149 293 151.358 293H148.839ZM150.144 290.277V291.958H151.369C151.734 291.958 152.006 291.883 152.185 291.732C152.364 291.578 152.454 291.385 152.454 291.152C152.454 290.587 152.131 290.295 151.487 290.277H150.144ZM150.144 289.364H151.283C151.609 289.357 151.859 289.289 152.035 289.16C152.214 289.031 152.303 288.843 152.303 288.596C152.303 288.313 152.21 288.109 152.024 287.983C151.841 287.858 151.569 287.795 151.207 287.795H150.144V289.364Z" fill="#949494"/>
<path d="M177.409 268V278" stroke="#655B96"/>
<path d="M168.428 286.743L170.238 291.271L172.032 286.743H173.74V293H172.44V291.308L172.574 288.247L170.683 293H169.781L167.896 288.273L168.03 291.308V293H166.73V286.743H168.428ZM179.842 291.663H177.253L176.743 293H175.427L177.957 286.743H179.155L181.674 293H180.352L179.842 291.663ZM177.635 290.669H179.461L178.548 288.295L177.635 290.669ZM185.864 290.717H184.666V293H183.361V286.743H185.81C186.591 286.743 187.196 286.907 187.626 287.237C188.056 287.563 188.27 288.03 188.27 288.639C188.27 289.48 187.868 290.064 187.062 290.39L188.534 292.941V293H187.137L185.864 290.717ZM184.666 289.675H185.81C186.197 289.675 186.487 289.591 186.681 289.423C186.874 289.251 186.971 289.025 186.971 288.746C186.971 288.456 186.876 288.225 186.686 288.053C186.5 287.881 186.208 287.795 185.81 287.795H184.666V289.675Z" fill="#949494"/>
<path d="M210.864 268V278" stroke="#655B96"/>
<path d="M205.11 291.663H202.521L202.011 293H200.695L203.225 286.743H204.423L206.942 293H205.62L205.11 291.663ZM202.903 290.669H204.729L203.816 288.295L202.903 290.669ZM209.934 290.803V293H208.629V286.743H211.234C211.993 286.743 212.599 286.934 213.05 287.317C213.504 287.697 213.732 288.196 213.732 288.816C213.732 289.421 213.515 289.901 213.082 290.255C212.652 290.61 212.058 290.792 211.299 290.803H209.934ZM209.934 289.75H211.234C211.607 289.75 211.898 289.672 212.11 289.514C212.325 289.357 212.432 289.127 212.432 288.827C212.432 288.515 212.323 288.266 212.104 288.08C211.89 287.89 211.601 287.795 211.24 287.795H209.934V289.75ZM218.223 290.717H217.025V293H215.72V286.743H218.169C218.95 286.743 219.555 286.907 219.985 287.237C220.414 287.563 220.629 288.03 220.629 288.639C220.629 289.48 220.226 290.064 219.421 290.39L220.892 292.941V293H219.496L218.223 290.717ZM217.025 289.675H218.169C218.556 289.675 218.846 289.591 219.039 289.423C219.233 289.251 219.329 289.025 219.329 288.746C219.329 288.456 219.235 288.225 219.045 288.053C218.859 287.881 218.567 287.795 218.169 287.795H217.025V289.675Z" fill="#949494"/>
<path d="M244.318 268V278" stroke="#655B96"/>
<path d="M235.6 286.743L237.41 291.271L239.204 286.743H240.912V293H239.612V291.308L239.746 288.247L237.856 293H236.953L235.068 288.273L235.202 291.308V293H233.903V286.743H235.6ZM247.014 291.663H244.426L243.915 293H242.599L245.129 286.743H246.327L248.846 293H247.525L247.014 291.663ZM244.807 290.669H246.633L245.72 288.295L244.807 290.669ZM252.451 289.595L253.901 286.743H255.335L253.085 290.83V293H251.785V290.76L249.572 286.743H251.006L252.451 289.595Z" fill="#949494"/>
<path d="M277.773 268V278" stroke="#655B96"/>
<path d="M271.042 286.743H272.347V291.04C272.347 291.663 272.143 292.16 271.735 292.533C271.33 292.902 270.809 293.086 270.172 293.086C269.448 293.086 268.884 292.914 268.48 292.57C268.079 292.227 267.878 291.741 267.878 291.115H269.189C269.189 291.734 269.516 292.044 270.172 292.044C270.44 292.044 270.651 291.96 270.805 291.792C270.963 291.623 271.042 291.373 271.042 291.04V286.743ZM279.62 286.743V290.862C279.62 291.543 279.389 292.083 278.927 292.484C278.469 292.885 277.848 293.086 277.064 293.086C276.28 293.086 275.658 292.889 275.2 292.495C274.742 292.098 274.512 291.553 274.512 290.862V286.743H275.807V290.868C275.807 291.279 275.92 291.578 276.145 291.765C276.371 291.951 276.677 292.044 277.064 292.044C277.884 292.044 278.301 291.664 278.315 290.905V286.743H279.62ZM287.221 293H285.922L283.107 288.73V293H281.802V286.743H283.107L285.922 291.018V286.743H287.221V293Z" fill="#949494"/>
<path d="M309.227 268V278" stroke="#655B96"/>
<path d="M303.281 286.743H304.586V291.04C304.586 291.663 304.382 292.16 303.973 292.533C303.569 292.902 303.048 293.086 302.41 293.086C301.687 293.086 301.123 292.914 300.719 292.57C300.317 292.227 300.117 291.741 300.117 291.115H301.427C301.427 291.734 301.755 292.044 302.41 292.044C302.679 292.044 302.89 291.96 303.044 291.792C303.202 291.623 303.281 291.373 303.281 291.04V286.743ZM311.859 286.743V290.862C311.859 291.543 311.628 292.083 311.166 292.484C310.708 292.885 310.087 293.086 309.302 293.086C308.518 293.086 307.897 292.889 307.439 292.495C306.98 292.098 306.751 291.553 306.751 290.862V286.743H308.046V290.868C308.046 291.279 308.158 291.578 308.384 291.765C308.61 291.951 308.916 292.044 309.302 292.044C310.122 292.044 310.54 291.664 310.554 290.905V286.743H311.859ZM315.346 291.958H318.327V293H314.041V286.743H315.346V291.958Z" fill="#949494"/>
<path d="M340.682 268V278" stroke="#655B96"/>
<path d="M334.724 291.663H332.135L331.625 293H330.309L332.839 286.743H334.037L336.556 293H335.235L334.724 291.663ZM332.517 290.669H334.343L333.43 288.295L332.517 290.669ZM343.163 286.743V290.862C343.163 291.543 342.932 292.083 342.47 292.484C342.012 292.885 341.391 293.086 340.607 293.086C339.822 293.086 339.201 292.889 338.743 292.495C338.285 292.098 338.055 291.553 338.055 290.862V286.743H339.35V290.868C339.35 291.279 339.463 291.578 339.688 291.765C339.914 291.951 340.22 292.044 340.607 292.044C341.427 292.044 341.844 291.664 341.858 290.905V286.743H343.163ZM350.598 292.21L350.474 292.339C349.937 292.837 349.133 293.086 348.063 293.086C347.175 293.086 346.469 292.816 345.946 292.275C345.424 291.734 345.162 290.989 345.162 290.041V289.691C345.162 288.743 345.411 288 345.909 287.462C346.407 286.925 347.092 286.657 347.966 286.657C348.736 286.657 349.345 286.832 349.792 287.183C350.24 287.53 350.508 288.048 350.598 288.735H349.325C349.26 288.377 349.119 288.116 348.901 287.951C348.686 287.786 348.385 287.704 347.998 287.704C346.981 287.704 346.473 288.375 346.473 289.718V290.062C346.473 290.717 346.616 291.211 346.903 291.544C347.189 291.877 347.597 292.044 348.127 292.044C348.657 292.044 349.047 291.942 349.298 291.738V290.664H347.961V289.713H350.598V292.21Z" fill="#949494"/>
<path d="M372.636 268V278" stroke="#655B96"/>
<path d="M367.173 291.356C367.173 291.12 367.08 290.932 366.894 290.792C366.707 290.649 366.34 290.51 365.793 290.374C365.248 290.237 364.819 290.082 364.504 289.906C364.188 289.731 363.956 289.527 363.805 289.294C363.658 289.058 363.585 288.775 363.585 288.445C363.585 287.923 363.805 287.495 364.246 287.162C364.686 286.825 365.255 286.657 365.954 286.657C366.706 286.657 367.309 286.836 367.764 287.194C368.219 287.552 368.446 288.017 368.446 288.59H367.141C367.141 288.3 367.033 288.073 366.818 287.908C366.604 287.74 366.315 287.656 365.954 287.656C365.614 287.656 365.345 287.726 365.148 287.865C364.951 288.001 364.853 288.184 364.853 288.413C364.853 288.621 364.953 288.793 365.153 288.929C365.358 289.065 365.716 289.195 366.228 289.321C367.019 289.514 367.587 289.77 367.93 290.089C368.274 290.408 368.446 290.821 368.446 291.33C368.446 291.877 368.224 292.307 367.78 292.619C367.336 292.93 366.749 293.086 366.018 293.086C365.524 293.086 365.071 293.004 364.659 292.839C364.251 292.671 363.934 292.434 363.709 292.13C363.483 291.826 363.37 291.471 363.37 291.066H364.681C364.681 291.754 365.139 292.098 366.056 292.098C366.403 292.098 366.675 292.031 366.872 291.899C367.073 291.766 367.173 291.586 367.173 291.356ZM374.452 290.293H371.755V291.958H374.914V293H370.45V286.743H374.898V287.795H371.755V289.246H374.452V290.293ZM378.084 290.803V293H376.778V286.743H379.383C380.143 286.743 380.748 286.934 381.199 287.317C381.654 287.697 381.881 288.196 381.881 288.816C381.881 289.421 381.664 289.901 381.231 290.255C380.801 290.61 380.207 290.792 379.448 290.803H378.084ZM378.084 289.75H379.383C379.756 289.75 380.048 289.672 380.259 289.514C380.474 289.357 380.581 289.127 380.581 288.827C380.581 288.515 380.472 288.266 380.254 288.08C380.039 287.89 379.75 287.795 379.389 287.795H378.084V289.75Z" fill="#949494"/>
<path d="M404.591 268V278" stroke="#655B96"/>
<path d="M400.417 290.014C400.417 290.959 400.157 291.707 399.638 292.259C399.122 292.81 398.44 293.086 397.591 293.086C396.746 293.086 396.061 292.81 395.534 292.259C395.008 291.704 394.745 290.946 394.745 289.987V289.74C394.745 289.124 394.863 288.581 395.099 288.112C395.339 287.64 395.674 287.28 396.104 287.033C396.533 286.782 397.026 286.657 397.581 286.657C398.44 286.657 399.128 286.938 399.643 287.5C400.159 288.059 400.417 288.816 400.417 289.772V290.014ZM399.117 289.729C399.117 289.074 398.983 288.574 398.714 288.23C398.445 287.887 398.068 287.715 397.581 287.715C397.101 287.715 396.725 287.887 396.453 288.23C396.181 288.574 396.045 289.074 396.045 289.729V290.014C396.045 290.651 396.181 291.149 396.453 291.507C396.728 291.861 397.108 292.039 397.591 292.039C398.078 292.039 398.454 291.865 398.719 291.518C398.984 291.167 399.117 290.665 399.117 290.014V289.729ZM407.706 290.916C407.645 291.6 407.377 292.133 406.901 292.517C406.428 292.896 405.803 293.086 405.026 293.086C404.181 293.086 403.511 292.817 403.017 292.28C402.523 291.743 402.276 290.997 402.276 290.041V289.675C402.276 289.07 402.389 288.54 402.614 288.085C402.84 287.627 403.164 287.274 403.587 287.027C404.009 286.78 404.5 286.657 405.058 286.657C405.825 286.657 406.44 286.852 406.906 287.242C407.371 287.632 407.64 288.175 407.712 288.87H406.406C406.363 288.469 406.229 288.175 406.004 287.989C405.782 287.799 405.466 287.704 405.058 287.704C404.074 287.704 403.581 288.367 403.581 289.691V290.078C403.581 290.741 403.701 291.235 403.941 291.561C404.181 291.883 404.543 292.044 405.026 292.044C405.456 292.044 405.782 291.956 406.004 291.781C406.226 291.605 406.36 291.317 406.406 290.916H407.706ZM414.657 287.795H412.584V293H411.279V287.795H409.233V286.743H414.657V287.795Z" fill="#949494"/>
<path d="M437.545 268V278" stroke="#655B96"/>
<path d="M432.947 293H431.647L428.833 288.73V293H427.527V286.743H428.833L431.647 291.018V286.743H432.947V293ZM440.682 290.014C440.682 290.959 440.423 291.707 439.903 292.259C439.388 292.81 438.706 293.086 437.857 293.086C437.012 293.086 436.326 292.81 435.8 292.259C435.273 291.704 435.01 290.946 435.01 289.987V289.74C435.01 289.124 435.128 288.581 435.365 288.112C435.605 287.64 435.94 287.28 436.369 287.033C436.799 286.782 437.291 286.657 437.846 286.657C438.706 286.657 439.393 286.938 439.909 287.5C440.424 288.059 440.682 288.816 440.682 289.772V290.014ZM439.382 289.729C439.382 289.074 439.248 288.574 438.98 288.23C438.711 287.887 438.333 287.715 437.846 287.715C437.366 287.715 436.99 287.887 436.718 288.23C436.446 288.574 436.31 289.074 436.31 289.729V290.014C436.31 290.651 436.446 291.149 436.718 291.507C436.994 291.861 437.374 292.039 437.857 292.039C438.344 292.039 438.72 291.865 438.985 291.518C439.25 291.167 439.382 290.665 439.382 290.014V289.729ZM445.007 291.324L445.109 291.738L445.206 291.335L446.763 286.743H448.144L445.77 293H444.448L442.08 286.743H443.46L445.007 291.324Z" fill="#949494"/>
<path d="M470 268V278" stroke="#655B96"/>
<path d="M460.798 293V286.743H462.834C463.421 286.743 463.946 286.866 464.408 287.113C464.873 287.36 465.235 287.709 465.493 288.161C465.75 288.608 465.883 289.117 465.89 289.686V290.014C465.89 290.597 465.761 291.117 465.503 291.571C465.249 292.026 464.886 292.379 464.413 292.629C463.944 292.876 463.409 293 462.807 293H460.798ZM462.104 287.795V291.958H462.802C463.973 291.958 464.569 291.335 464.59 290.089V289.729C464.59 288.469 464.034 287.824 462.92 287.795H462.104ZM471.955 290.293H469.259V291.958H472.417V293H467.954V286.743H472.401V287.795H469.259V289.246H471.955V290.293ZM479.502 290.916C479.442 291.6 479.173 292.133 478.697 292.517C478.224 292.896 477.599 293.086 476.822 293.086C475.977 293.086 475.308 292.817 474.813 292.28C474.319 291.743 474.072 290.997 474.072 290.041V289.675C474.072 289.07 474.185 288.54 474.411 288.085C474.636 287.627 474.96 287.274 475.383 287.027C475.805 286.78 476.296 286.657 476.854 286.657C477.621 286.657 478.237 286.852 478.702 287.242C479.168 287.632 479.436 288.175 479.508 288.87H478.203C478.16 288.469 478.025 288.175 477.8 287.989C477.578 287.799 477.263 287.704 476.854 287.704C475.87 287.704 475.377 288.367 475.377 289.691V290.078C475.377 290.741 475.497 291.235 475.737 291.561C475.977 291.883 476.339 292.044 476.822 292.044C477.252 292.044 477.578 291.956 477.8 291.781C478.022 291.605 478.156 291.317 478.203 290.916H479.502Z" fill="#949494"/>
</g>
<rect x="80" y="55" width="97" height="15" fill="white"/>
<path d="M82.6456 59.4545H84.0966L86.0398 64.1974H86.1165L88.0597 59.4545H89.5107V66H88.3729V61.5032H88.3121L86.5032 65.9808H85.6531L83.8441 61.4936H83.7834V66H82.6456V59.4545ZM91.6424 66H90.3768L92.6811 59.4545H94.1449L96.4524 66H95.1868L93.4386 60.7969H93.3874L91.6424 66ZM91.6839 63.4336H95.1357V64.386H91.6839V63.4336ZM102.693 59.4545V66H101.639L98.5546 61.5415H98.5003V66H97.3145V59.4545H98.3756L101.457 63.9162H101.514V59.4545H102.693ZM104.826 66H103.56L105.865 59.4545H107.328L109.636 66H108.37L106.622 60.7969H106.571L104.826 66ZM104.868 63.4336H108.319V64.386H104.868V63.4336ZM114.575 61.5447C114.522 61.3722 114.449 61.2177 114.355 61.0813C114.263 60.9428 114.153 60.8246 114.023 60.7266C113.895 60.6286 113.748 60.555 113.581 60.506C113.415 60.4549 113.234 60.4293 113.038 60.4293C112.687 60.4293 112.373 60.5178 112.099 60.6946C111.824 60.8714 111.607 61.1314 111.45 61.4744C111.294 61.8153 111.216 62.2308 111.216 62.7209C111.216 63.2152 111.294 63.6339 111.45 63.9769C111.605 64.32 111.822 64.581 112.099 64.7599C112.376 64.9368 112.697 65.0252 113.064 65.0252C113.396 65.0252 113.684 64.9613 113.927 64.8335C114.172 64.7056 114.36 64.5245 114.492 64.2901C114.624 64.0536 114.691 63.7766 114.691 63.4592L114.959 63.5007H113.182V62.5739H115.838V63.3601C115.838 63.9205 115.719 64.4052 115.48 64.8143C115.241 65.2234 114.913 65.5387 114.496 65.7603C114.078 65.9798 113.599 66.0895 113.057 66.0895C112.454 66.0895 111.925 65.9542 111.469 65.6836C111.015 65.4109 110.66 65.0241 110.405 64.5234C110.151 64.0206 110.024 63.424 110.024 62.7337C110.024 62.2053 110.099 61.7333 110.248 61.3178C110.399 60.9023 110.61 60.5497 110.881 60.2599C111.151 59.968 111.469 59.7464 111.833 59.5952C112.198 59.4418 112.594 59.3651 113.022 59.3651C113.384 59.3651 113.722 59.4183 114.035 59.5249C114.349 59.6293 114.627 59.7784 114.869 59.9723C115.115 60.1662 115.316 60.3963 115.474 60.6626C115.631 60.929 115.735 61.223 115.784 61.5447H114.575ZM116.984 66V59.4545H121.242V60.4485H118.17V62.2255H121.021V63.2195H118.17V65.006H121.267V66H116.984ZM122.451 59.4545H123.902L125.845 64.1974H125.922L127.865 59.4545H129.316V66H128.179V61.5032H128.118L126.309 65.9808H125.459L123.65 61.4936H123.589V66H122.451V59.4545ZM130.608 66V59.4545H134.865V60.4485H131.793V62.2255H134.644V63.2195H131.793V65.006H134.89V66H130.608ZM141.453 59.4545V66H140.399L137.314 61.5415H137.26V66H136.074V59.4545H137.135L140.216 63.9162H140.274V59.4545H141.453ZM142.458 60.4485V59.4545H147.68V60.4485H145.657V66H144.481V60.4485H142.458Z" fill="black"/>
</g>
<defs>
<filter id="filter0_d_2902_599" x="0" y="0" width="540" height="360" filterUnits="userSpaceOnUse" color-interpolation-filters="sRGB">
<feFlood flood-opacity="0" result="BackgroundImageFix"/>
<feColorMatrix in="SourceAlpha" type="matrix" values="0 0 0 0 0 0 0 0 0 0 0 0 0 0 0 0 0 0 127 0" result="hardAlpha"/>
<feOffset dy="4"/>
<feGaussianBlur stdDeviation="10"/>
<feComposite in2="hardAlpha" operator="out"/>
<feColorMatrix type="matrix" values="0 0 0 0 0.35498 0 0 0 0 0.279635 0 0 0 0 0.7375 0 0 0 0.3 0"/>
<feBlend mode="normal" in2="BackgroundImageFix" result="effect1_dropShadow_2902_599"/>
<feBlend mode="normal" in="SourceGraphic" in2="effect1_dropShadow_2902_599" result="shape"/>
</filter>
<clipPath id="clip0_2902_599">
<rect width="540" height="360" fill="white"/>
</clipPath>
</defs>
</svg>
