<svg width="190" height="55" viewBox="0 0 190 55" fill="none" xmlns="http://www.w3.org/2000/svg">
<path d="M42.5 14.3H28.1V0H14.3C14.3 7.9 7.9 14.3 0 14.3V28.1H14.3V42.4H28.1C28.1 34.5 34.6 28.1 42.5 28.1V14.3Z" fill="white"/>
<path d="M57.7 6.45502H80.47C83.665 6.45502 86.59 6.63502 89.155 7.04002C91.765 7.44502 93.925 7.98502 95.635 8.75002C97.39 9.51502 98.875 10.325 100.09 11.27C101.305 12.17 102.25 13.205 102.925 14.375C103.555 15.545 104.05 16.67 104.32 17.795C104.635 18.92 104.77 20.09 104.77 21.35V22.655C104.77 24.14 104.59 25.535 104.185 26.84C103.825 28.19 103.105 29.54 102.025 30.935C100.9 32.375 99.505 33.59 97.795 34.58C96.04 35.57 93.7 36.38 90.73 37.01C87.805 37.685 84.385 38 80.515 38H57.7V6.45502ZM68.455 13.88V30.395H79.66C88.885 30.395 93.475 27.695 93.475 22.25V22.025C93.475 16.58 88.885 13.88 79.66 13.88H68.455ZM140.938 29.81C142.378 30.215 144.223 30.44 146.473 30.44L144.268 36.245C140.938 36.245 137.968 35.525 135.403 34.13C132.253 35.57 128.473 36.29 124.063 36.29C113.038 36.29 107.548 33.635 107.548 28.28V27.875C107.548 24.455 110.293 22.295 115.783 21.485C113.398 19.73 112.228 17.705 112.228 15.5V15.23C112.228 14.51 112.318 13.925 112.453 13.385C112.633 12.8 112.948 12.26 113.398 11.63C113.893 11.045 114.523 10.505 115.333 10.1C116.143 9.69502 117.223 9.38002 118.618 9.11002C120.013 8.84002 121.633 8.75002 123.523 8.75002H125.413C132.793 8.75002 136.438 10.82 136.438 15.05V15.23C136.438 15.455 136.438 15.635 136.393 15.86H129.148V15.815C129.148 14.96 128.788 14.33 128.113 13.88C127.393 13.43 126.133 13.205 124.333 13.205C122.803 13.205 121.723 13.385 121.093 13.745C120.508 14.105 120.238 14.6 120.238 15.275C120.238 15.86 120.508 16.445 121.093 17.03C121.678 17.57 134.998 26.66 134.998 26.66C136.213 24.77 136.798 22.475 136.798 19.73H144.673C144.493 23.645 143.278 27.02 140.938 29.81ZM123.793 31.16C126.088 31.16 128.068 30.935 129.688 30.485L118.933 23.555C116.998 24.23 116.053 25.4 116.053 26.93V27.02C116.053 28.19 116.683 29.135 117.943 29.945C119.203 30.755 121.183 31.16 123.793 31.16ZM187.636 24.905C188.716 26.075 189.256 27.605 189.256 29.495V38H179.491V32.465C179.491 30.575 178.996 29.18 178.006 28.325C177.016 27.47 175.351 27.02 172.966 27.02H160.276V38H150.556V7.04002H175.621C184.621 7.04002 189.121 9.74002 189.121 15.095V15.59C189.121 18.875 187.186 21.125 183.361 22.385C185.116 22.88 186.556 23.69 187.636 24.905ZM178.951 17.12V17.075C178.951 16.175 178.636 15.455 178.006 14.915C177.376 14.375 176.386 14.06 175.036 14.06H160.276V20.18H175.036C176.386 20.18 177.376 19.865 178.006 19.325C178.636 18.785 178.951 18.02 178.951 17.12Z" fill="white"/>
<path d="M62.7534 54.1465C62.2358 54.1465 61.728 54.0781 61.23 53.9414C60.7319 53.7998 60.2778 53.5874 59.8677 53.3042C59.4624 53.021 59.1377 52.667 58.8936 52.2422C58.6543 51.8125 58.5347 51.3071 58.5347 50.7261H60.4902C60.4902 51.063 60.5464 51.3511 60.6587 51.5903C60.7759 51.8247 60.937 52.0176 61.1421 52.1689C61.3472 52.3203 61.5864 52.4302 61.8599 52.4985C62.1333 52.5669 62.4312 52.6011 62.7534 52.6011C63.1733 52.6011 63.52 52.5425 63.7935 52.4253C64.0669 52.3081 64.272 52.147 64.4087 51.9419C64.5503 51.7368 64.6211 51.5 64.6211 51.2314C64.6211 50.9531 64.5625 50.7163 64.4453 50.521C64.3281 50.3208 64.1084 50.1353 63.7861 49.9644C63.4688 49.7886 63.0049 49.6079 62.3945 49.4224C61.8965 49.271 61.4326 49.0977 61.0029 48.9023C60.5781 48.707 60.2046 48.48 59.8823 48.2212C59.5601 47.9624 59.3086 47.6646 59.1279 47.3276C58.9521 46.9858 58.8643 46.5903 58.8643 46.1411C58.8643 45.5601 59.0254 45.0474 59.3477 44.603C59.6748 44.1587 60.1265 43.812 60.7026 43.563C61.2788 43.314 61.9429 43.1895 62.6948 43.1895C63.4956 43.1895 64.1841 43.3359 64.7603 43.6289C65.3413 43.917 65.7881 44.3076 66.1006 44.8008C66.4131 45.2939 66.5693 45.8457 66.5693 46.4561H64.6138C64.6138 46.124 64.543 45.8286 64.4014 45.5698C64.2646 45.311 64.0522 45.1108 63.7642 44.9692C63.481 44.8228 63.1172 44.7495 62.6729 44.7495C62.2578 44.7495 61.9111 44.8105 61.6328 44.9326C61.3594 45.0547 61.1543 45.2207 61.0176 45.4307C60.8857 45.6406 60.8198 45.8774 60.8198 46.1411C60.8198 46.3999 60.9004 46.627 61.0615 46.8223C61.2275 47.0176 61.4766 47.1958 61.8086 47.3569C62.1406 47.5132 62.5532 47.667 63.0464 47.8184C63.8374 48.0479 64.4941 48.3188 65.0166 48.6313C65.5391 48.939 65.9297 49.3052 66.1885 49.73C66.4473 50.1499 66.5767 50.6455 66.5767 51.2168C66.5767 51.8223 66.418 52.3447 66.1006 52.7842C65.7881 53.2236 65.3462 53.5605 64.7749 53.7949C64.2036 54.0293 63.5298 54.1465 62.7534 54.1465ZM71.5498 54.1465C70.7539 54.1465 70.0679 53.978 69.4917 53.6411C68.9204 53.2993 68.4785 52.8379 68.166 52.2568C67.8584 51.6758 67.7046 51.0288 67.7046 50.3159V50.0156C67.7046 49.1953 67.8608 48.48 68.1733 47.8696C68.4858 47.2544 68.9155 46.7783 69.4624 46.4414C70.0093 46.0996 70.6318 45.9287 71.3301 45.9287C72.0918 45.9287 72.7241 46.0947 73.2271 46.4268C73.7349 46.7539 74.1157 47.2104 74.3696 47.7964C74.6235 48.3774 74.7505 49.0513 74.7505 49.8179V50.6235H68.5908V49.2905H72.8975V49.144C72.8877 48.8413 72.8291 48.5605 72.7217 48.3018C72.6143 48.043 72.4458 47.8354 72.2163 47.6792C71.9917 47.5181 71.6938 47.4375 71.3228 47.4375C70.937 47.4375 70.6147 47.5449 70.356 47.7598C70.1021 47.9746 69.9092 48.2749 69.7773 48.6606C69.6504 49.0464 69.5869 49.498 69.5869 50.0156V50.3159C69.5869 50.7554 69.6675 51.1509 69.8286 51.5024C69.9946 51.854 70.2314 52.1323 70.5391 52.3374C70.8516 52.5376 71.2251 52.6377 71.6597 52.6377C72.0747 52.6377 72.4458 52.5571 72.7729 52.396C73.105 52.23 73.3906 51.9932 73.6299 51.6855L74.604 52.6743C74.355 53.0454 73.9766 53.3848 73.4688 53.6924C72.9658 53.9951 72.3262 54.1465 71.5498 54.1465ZM77.9585 54H76.0835V46.0752H77.8633L77.9585 47.6719V54ZM80.3389 47.811C80.2266 47.7915 80.1045 47.7769 79.9727 47.7671C79.8457 47.7573 79.7212 47.7524 79.5991 47.7524C79.2036 47.7524 78.874 47.8232 78.6104 47.9648C78.3467 48.1016 78.1465 48.3018 78.0098 48.5654C77.8779 48.8242 77.7998 49.1343 77.7754 49.4956L77.3579 49.4663C77.3579 48.7974 77.4458 48.1968 77.6216 47.6646C77.7974 47.1274 78.0586 46.7051 78.4053 46.3975C78.7568 46.085 79.1938 45.9287 79.7163 45.9287C79.8188 45.9287 79.9336 45.9385 80.0605 45.958C80.1875 45.9727 80.2852 45.9946 80.3535 46.0239L80.3389 47.811ZM86.0811 46.0752H88.0293L85.3047 54H84.0962L84.2061 52.5352L86.0811 46.0752ZM84.7261 52.5498L84.8066 54H83.6055L80.8589 46.0752H82.8145L84.7261 52.5498ZM90.1606 43.021C90.4927 43.021 90.7539 43.1162 90.9443 43.3066C91.1348 43.4922 91.23 43.7266 91.23 44.0098C91.23 44.293 91.1348 44.5298 90.9443 44.7202C90.7539 44.9058 90.4927 44.9985 90.1606 44.9985C89.8286 44.9985 89.5674 44.9058 89.377 44.7202C89.1914 44.5298 89.0986 44.293 89.0986 44.0098C89.0986 43.7266 89.1914 43.4922 89.377 43.3066C89.5674 43.1162 89.8286 43.021 90.1606 43.021ZM91.1055 54H89.2231V46.0752H91.1055V54ZM96.2983 54.1465C95.4878 54.1465 94.814 53.9683 94.2769 53.6118C93.7397 53.2505 93.3394 52.7695 93.0757 52.1689C92.812 51.5635 92.6802 50.8945 92.6802 50.1621V49.9204C92.6802 49.1831 92.812 48.5142 93.0757 47.9136C93.3442 47.3081 93.7446 46.8271 94.2769 46.4707C94.814 46.1094 95.4854 45.9287 96.291 45.9287C96.9307 45.9287 97.4922 46.0557 97.9756 46.3096C98.4639 46.5586 98.8447 46.9102 99.1182 47.3643C99.3916 47.8135 99.5332 48.3433 99.543 48.9536H97.7778C97.7681 48.6753 97.7021 48.4214 97.5801 48.1919C97.458 47.9624 97.2847 47.7793 97.0601 47.6426C96.8403 47.5059 96.5742 47.4375 96.2617 47.4375C95.8076 47.4375 95.4561 47.5571 95.207 47.7964C94.9629 48.0356 94.792 48.3457 94.6943 48.7266C94.6016 49.1025 94.5552 49.5005 94.5552 49.9204V50.1621C94.5552 50.582 94.6016 50.9824 94.6943 51.3633C94.7871 51.7393 94.958 52.0469 95.207 52.2861C95.4561 52.5205 95.8125 52.6377 96.2764 52.6377C96.5547 52.6377 96.8037 52.584 97.0234 52.4766C97.248 52.3643 97.4263 52.2104 97.5581 52.0151C97.6948 51.8198 97.7681 51.5928 97.7778 51.334H99.543C99.5332 51.8613 99.3818 52.3374 99.0889 52.7622C98.7959 53.187 98.4053 53.5239 97.917 53.7729C97.4336 54.022 96.894 54.1465 96.2983 54.1465ZM104.406 54.1465C103.61 54.1465 102.924 53.978 102.348 53.6411C101.777 53.2993 101.335 52.8379 101.022 52.2568C100.715 51.6758 100.561 51.0288 100.561 50.3159V50.0156C100.561 49.1953 100.717 48.48 101.03 47.8696C101.342 47.2544 101.772 46.7783 102.319 46.4414C102.866 46.0996 103.488 45.9287 104.187 45.9287C104.948 45.9287 105.581 46.0947 106.083 46.4268C106.591 46.7539 106.972 47.2104 107.226 47.7964C107.48 48.3774 107.607 49.0513 107.607 49.8179V50.6235H101.447V49.2905H105.754V49.144C105.744 48.8413 105.686 48.5605 105.578 48.3018C105.471 48.043 105.302 47.8354 105.073 47.6792C104.848 47.5181 104.55 47.4375 104.179 47.4375C103.793 47.4375 103.471 47.5449 103.212 47.7598C102.958 47.9746 102.766 48.2749 102.634 48.6606C102.507 49.0464 102.443 49.498 102.443 50.0156V50.3159C102.443 50.7554 102.524 51.1509 102.685 51.5024C102.851 51.854 103.088 52.1323 103.396 52.3374C103.708 52.5376 104.082 52.6377 104.516 52.6377C104.931 52.6377 105.302 52.5571 105.629 52.396C105.961 52.23 106.247 51.9932 106.486 51.6855L107.46 52.6743C107.211 53.0454 106.833 53.3848 106.325 53.6924C105.822 53.9951 105.183 54.1465 104.406 54.1465ZM111.921 54.1465C111.193 54.1465 110.578 54.0171 110.075 53.7583C109.577 53.4946 109.199 53.1602 108.94 52.7549C108.686 52.3496 108.559 51.9321 108.559 51.5024H110.361C110.38 51.8052 110.466 52.0518 110.617 52.2422C110.773 52.4277 110.969 52.562 111.203 52.645C111.442 52.728 111.691 52.7695 111.95 52.7695C112.253 52.7695 112.507 52.7305 112.712 52.6523C112.917 52.5693 113.071 52.4595 113.173 52.3228C113.281 52.1812 113.334 52.0176 113.334 51.832C113.334 51.666 113.291 51.5171 113.203 51.3853C113.12 51.2534 112.956 51.1313 112.712 51.019C112.473 50.9067 112.119 50.8018 111.65 50.7041C111.093 50.5869 110.603 50.4307 110.178 50.2354C109.753 50.04 109.418 49.7886 109.174 49.481C108.935 49.1685 108.815 48.79 108.815 48.3457C108.815 47.9111 108.94 47.5107 109.189 47.1445C109.438 46.7783 109.794 46.4854 110.258 46.2656C110.722 46.041 111.271 45.9287 111.906 45.9287C112.575 45.9287 113.149 46.041 113.627 46.2656C114.111 46.4854 114.482 46.7856 114.741 47.1665C115 47.5425 115.129 47.9722 115.129 48.4556H113.254C113.254 48.1431 113.142 47.8745 112.917 47.6499C112.692 47.4204 112.353 47.3057 111.899 47.3057C111.625 47.3057 111.394 47.3496 111.203 47.4375C111.013 47.5254 110.871 47.6426 110.778 47.7891C110.686 47.9307 110.639 48.0869 110.639 48.2578C110.639 48.4238 110.686 48.5703 110.778 48.6973C110.876 48.8193 111.04 48.9292 111.269 49.0269C111.499 49.1196 111.818 49.21 112.229 49.2979C112.824 49.4199 113.342 49.5786 113.781 49.7739C114.226 49.9644 114.567 50.2183 114.807 50.5356C115.051 50.8481 115.173 51.251 115.173 51.7441C115.173 52.208 115.039 52.623 114.77 52.9893C114.506 53.3506 114.13 53.6338 113.642 53.8389C113.154 54.0439 112.58 54.1465 111.921 54.1465Z" fill="white"/>
</svg>
