<svg width="203" height="55" viewBox="0 0 203 55" fill="none" xmlns="http://www.w3.org/2000/svg">
<path d="M42.5 14.3H28.1V0H14.3C14.3 7.9 7.9 14.3 0 14.3V28.1H14.3V42.4H28.1C28.1 34.5 34.6 28.1 42.5 28.1V14.3Z" fill="#201B21"/>
<path d="M57.7 6.455H80.47C83.665 6.455 86.59 6.635 89.155 7.04C91.765 7.445 93.925 7.985 95.635 8.75C97.39 9.515 98.875 10.325 100.09 11.27C101.305 12.17 102.25 13.205 102.925 14.375C103.555 15.545 104.05 16.67 104.32 17.795C104.635 18.92 104.77 20.09 104.77 21.35V22.655C104.77 24.14 104.59 25.535 104.185 26.84C103.825 28.19 103.105 29.54 102.025 30.935C100.9 32.375 99.505 33.59 97.795 34.58C96.04 35.57 93.7 36.38 90.73 37.01C87.805 37.685 84.385 38 80.515 38H57.7V6.455ZM68.455 13.88V30.395H79.66C88.885 30.395 93.475 27.695 93.475 22.25V22.025C93.475 16.58 88.885 13.88 79.66 13.88H68.455ZM140.938 29.81C142.378 30.215 144.223 30.44 146.473 30.44L144.268 36.245C140.938 36.245 137.968 35.525 135.403 34.13C132.253 35.57 128.473 36.29 124.063 36.29C113.038 36.29 107.548 33.635 107.548 28.28V27.875C107.548 24.455 110.293 22.295 115.783 21.485C113.398 19.73 112.228 17.705 112.228 15.5V15.23C112.228 14.51 112.318 13.925 112.453 13.385C112.633 12.8 112.948 12.26 113.398 11.63C113.893 11.045 114.523 10.505 115.333 10.1C116.143 9.695 117.223 9.38 118.618 9.11C120.013 8.84 121.633 8.75 123.523 8.75H125.413C132.793 8.75 136.438 10.82 136.438 15.05V15.23C136.438 15.455 136.438 15.635 136.393 15.86H129.148V15.815C129.148 14.96 128.788 14.33 128.113 13.88C127.393 13.43 126.133 13.205 124.333 13.205C122.803 13.205 121.723 13.385 121.093 13.745C120.508 14.105 120.238 14.6 120.238 15.275C120.238 15.86 120.508 16.445 121.093 17.03C121.678 17.57 134.998 26.66 134.998 26.66C136.213 24.77 136.798 22.475 136.798 19.73H144.673C144.493 23.645 143.278 27.02 140.938 29.81ZM123.793 31.16C126.088 31.16 128.068 30.935 129.688 30.485L118.933 23.555C116.998 24.23 116.053 25.4 116.053 26.93V27.02C116.053 28.19 116.683 29.135 117.943 29.945C119.203 30.755 121.183 31.16 123.793 31.16ZM187.636 24.905C188.716 26.075 189.256 27.605 189.256 29.495V38H179.491V32.465C179.491 30.575 178.996 29.18 178.006 28.325C177.016 27.47 175.351 27.02 172.966 27.02H160.276V38H150.556V7.04H175.621C184.621 7.04 189.121 9.74 189.121 15.095V15.59C189.121 18.875 187.186 21.125 183.361 22.385C185.116 22.88 186.556 23.69 187.636 24.905ZM178.951 17.12V17.075C178.951 16.175 178.636 15.455 178.006 14.915C177.376 14.375 176.386 14.06 175.036 14.06H160.276V20.18H175.036C176.386 20.18 177.376 19.865 178.006 19.325C178.636 18.785 178.951 18.02 178.951 17.12Z" fill="#201B21"/>
<path d="M61.492 52.144C60.76 52.144 60.1 52.096 59.488 51.988C58.876 51.88 58.36 51.748 57.952 51.58C57.532 51.4 57.172 51.196 56.848 50.956C56.524 50.704 56.272 50.464 56.092 50.212C55.912 49.96 55.768 49.696 55.648 49.408C55.528 49.12 55.444 48.856 55.408 48.628C55.372 48.388 55.36 48.16 55.36 47.932V47.596C55.36 47.236 55.396 46.888 55.468 46.564C55.54 46.24 55.708 45.88 55.96 45.484C56.224 45.088 56.56 44.74 56.98 44.452C57.4 44.164 58 43.924 58.78 43.732C59.548 43.528 60.46 43.432 61.492 43.432H61.996C63.016 43.432 63.904 43.516 64.684 43.684C65.452 43.864 66.052 44.068 66.472 44.308C66.892 44.56 67.24 44.836 67.504 45.16C67.78 45.484 67.948 45.772 68.032 46.024C68.104 46.276 68.14 46.516 68.14 46.744V46.876H65.092C65.068 46.78 65.044 46.708 65.008 46.636C64.972 46.564 64.876 46.444 64.72 46.288C64.564 46.132 64.384 46 64.168 45.892C63.952 45.784 63.628 45.688 63.208 45.604C62.776 45.52 62.296 45.472 61.744 45.472C61.084 45.472 60.52 45.532 60.064 45.664C59.596 45.784 59.248 45.952 59.008 46.168C58.78 46.396 58.612 46.624 58.516 46.864C58.408 47.104 58.36 47.368 58.36 47.656V47.788C58.36 48.064 58.42 48.328 58.528 48.58C58.636 48.832 58.816 49.072 59.056 49.312C59.296 49.552 59.644 49.744 60.112 49.888C60.58 50.032 61.132 50.104 61.768 50.104C63.652 50.104 64.756 49.612 65.092 48.64C65.104 48.628 65.104 48.616 65.104 48.604H68.152V48.724C68.152 48.976 68.116 49.24 68.032 49.504C67.936 49.768 67.756 50.056 67.492 50.392C67.216 50.716 66.868 51.004 66.436 51.256C66.016 51.496 65.416 51.712 64.648 51.892C63.88 52.06 62.992 52.144 61.996 52.144H61.492ZM74.4874 52.036H73.6234C72.8914 52.036 72.2314 51.964 71.6674 51.832C71.1034 51.7 70.6474 51.544 70.2994 51.34C69.9514 51.136 69.6754 50.884 69.4594 50.608C69.2314 50.32 69.0874 50.044 69.0034 49.768C68.9194 49.492 68.8834 49.204 68.8834 48.904V48.7C68.8834 48.4 68.9194 48.124 69.0034 47.848C69.0874 47.572 69.2314 47.308 69.4474 47.032C69.6634 46.744 69.9394 46.516 70.2874 46.312C70.6354 46.108 71.0914 45.952 71.6554 45.832C72.2194 45.7 72.8794 45.64 73.6114 45.64H74.4874C77.6314 45.64 79.2034 46.66 79.2034 48.7V48.904C79.2034 50.992 77.6314 52.036 74.4874 52.036ZM74.0554 50.404C74.9074 50.404 75.5194 50.248 75.8794 49.936C76.2514 49.636 76.4314 49.264 76.4314 48.844V48.784C76.4314 48.352 76.2514 47.98 75.8794 47.692C75.5194 47.392 74.9074 47.248 74.0674 47.248H74.0554C73.1914 47.248 72.5794 47.392 72.2194 47.68C71.8594 47.968 71.6794 48.34 71.6794 48.784V48.844C71.6794 49.264 71.8594 49.636 72.2314 49.936C72.5914 50.248 73.2034 50.404 74.0554 50.404ZM80.2097 45.892H82.9097V46.924C83.7617 46.144 84.8537 45.76 86.1857 45.76H86.2817C87.3497 45.76 88.1537 45.988 88.6817 46.444C89.2217 46.912 89.4857 47.464 89.4857 48.124V51.94H86.7257V48.952C86.7257 48.472 86.5817 48.1 86.2937 47.836C85.9937 47.572 85.5497 47.44 84.9617 47.44C84.3497 47.44 83.8577 47.596 83.4857 47.896C83.1257 48.196 82.9337 48.592 82.9337 49.084V51.94H80.2097V45.892ZM94.6814 52.144C91.8494 52.144 90.4454 51.436 90.4454 49.996V49.924H93.2654C93.2654 50.476 93.8294 50.752 94.9574 50.752H94.9814C95.4494 50.752 95.8214 50.716 96.0854 50.656C96.3494 50.596 96.5174 50.536 96.5894 50.464C96.6494 50.38 96.6854 50.296 96.6854 50.176V50.152C96.6854 49.984 96.5894 49.852 96.4094 49.768C96.2174 49.684 95.8334 49.636 95.2334 49.624L94.0574 49.6C93.3734 49.588 92.7854 49.528 92.2934 49.408C91.8134 49.3 91.4414 49.144 91.1894 48.964C90.9494 48.772 90.7694 48.58 90.6614 48.376C90.5534 48.172 90.5054 47.956 90.5054 47.716V47.644C90.5054 47.44 90.5294 47.248 90.5774 47.08C90.6374 46.924 90.7454 46.744 90.9254 46.576C91.1054 46.408 91.3334 46.264 91.6334 46.144C91.9214 46.036 92.3294 45.94 92.8454 45.868C93.3614 45.796 93.9734 45.76 94.6694 45.76H95.1614C97.9214 45.76 99.3014 46.384 99.3014 47.656V47.74H96.5054C96.4934 47.656 96.4694 47.596 96.4334 47.536C96.4094 47.488 96.3374 47.416 96.2414 47.344C96.1454 47.272 95.9774 47.224 95.7494 47.176C95.5094 47.14 95.2214 47.116 94.8854 47.116H94.8734C94.2494 47.116 93.8294 47.152 93.6134 47.224C93.4094 47.284 93.3014 47.404 93.3014 47.572V47.584C93.3014 47.74 93.3974 47.86 93.5894 47.932C93.7934 48.016 94.1534 48.064 94.6814 48.076L95.8574 48.1C96.8534 48.112 97.6214 48.196 98.1614 48.352C98.7134 48.508 99.0854 48.712 99.2654 48.964C99.4454 49.216 99.5414 49.564 99.5414 49.996V50.068C99.5414 50.368 99.4814 50.644 99.3614 50.872C99.2414 51.1 99.0374 51.316 98.7374 51.52C98.4374 51.724 97.9934 51.88 97.3934 51.988C96.7934 52.096 96.0614 52.144 95.1854 52.144H94.6814ZM109.639 51.916H106.927V50.86C106.795 50.98 106.699 51.064 106.651 51.1C106.603 51.148 106.459 51.244 106.219 51.388C105.991 51.544 105.775 51.652 105.571 51.724C105.379 51.796 105.103 51.868 104.767 51.94C104.431 52.012 104.083 52.048 103.723 52.048H103.627C102.583 52.048 101.803 51.808 101.275 51.316C100.747 50.836 100.495 50.272 100.495 49.624V45.856H103.255V48.844C103.255 49.312 103.387 49.684 103.675 49.948C103.951 50.224 104.383 50.356 104.947 50.356C105.535 50.356 106.015 50.212 106.375 49.912C106.723 49.612 106.903 49.204 106.903 48.712V45.856H109.639V51.916ZM113.602 43.6V51.976H110.878V43.6H113.602ZM117.755 51.94C116.663 51.94 116.123 51.376 116.123 50.224V47.56H114.839V45.892H116.123V44.128H118.823V45.892H120.119V47.56H118.823V49.756C118.823 49.936 118.859 50.068 118.931 50.152C119.003 50.236 119.147 50.284 119.375 50.284H120.119V51.94H117.755ZM129.802 50.38H130.138V52.072H128.038C127.462 52.072 127.138 51.784 127.042 51.22C126.85 51.448 126.526 51.676 126.058 51.88C125.59 52.084 124.954 52.18 124.15 52.18H124.006C123.022 52.18 122.29 51.988 121.81 51.604C121.33 51.22 121.102 50.74 121.102 50.152V50.068C121.102 49.504 121.294 49.072 121.702 48.772C122.11 48.484 122.782 48.292 123.718 48.208L126.586 47.944C126.838 47.908 126.97 47.8 126.97 47.62C126.97 47.512 126.946 47.44 126.898 47.368C126.85 47.308 126.694 47.248 126.442 47.2C126.19 47.14 125.818 47.104 125.35 47.104L121.102 47.116V45.676H125.614C126.31 45.676 126.91 45.712 127.402 45.796C127.906 45.88 128.278 45.988 128.542 46.108C128.806 46.24 129.01 46.396 129.154 46.588C129.31 46.792 129.394 46.96 129.43 47.116C129.454 47.272 129.478 47.464 129.478 47.68V50.068C129.478 50.272 129.586 50.38 129.802 50.38ZM126.97 49.3V49.108L124.498 49.492C124.15 49.54 123.91 49.612 123.766 49.696C123.634 49.78 123.562 49.9 123.562 50.068V50.08C123.562 50.272 123.646 50.44 123.826 50.584C124.006 50.716 124.294 50.788 124.702 50.788C125.362 50.788 125.914 50.632 126.334 50.332C126.766 50.032 126.97 49.696 126.97 49.3ZM130.999 45.892H133.699V46.924C134.551 46.144 135.643 45.76 136.975 45.76H137.071C138.139 45.76 138.943 45.988 139.471 46.444C140.011 46.912 140.275 47.464 140.275 48.124V51.94H137.515V48.952C137.515 48.472 137.371 48.1 137.083 47.836C136.783 47.572 136.339 47.44 135.751 47.44C135.139 47.44 134.647 47.596 134.275 47.896C133.915 48.196 133.723 48.592 133.723 49.084V51.94H130.999V45.892ZM146.106 52.048C145.386 52.048 144.75 51.976 144.186 51.844C143.622 51.712 143.178 51.544 142.854 51.34C142.53 51.136 142.254 50.896 142.038 50.608C141.834 50.32 141.69 50.044 141.618 49.768C141.546 49.504 141.51 49.216 141.51 48.928V48.7C141.51 48.412 141.546 48.136 141.618 47.86C141.69 47.596 141.834 47.332 142.038 47.044C142.242 46.768 142.518 46.54 142.842 46.336C143.178 46.132 143.622 45.976 144.174 45.844C144.738 45.724 145.374 45.652 146.094 45.652H146.79C147.57 45.652 148.266 45.724 148.854 45.856C149.442 45.988 149.898 46.156 150.21 46.348C150.522 46.54 150.774 46.768 150.978 47.02C151.17 47.284 151.29 47.512 151.35 47.704C151.398 47.908 151.422 48.1 151.422 48.304V48.328H148.614C148.434 47.608 147.702 47.236 146.43 47.236H146.394C145.662 47.236 145.134 47.38 144.798 47.668C144.462 47.944 144.306 48.304 144.306 48.736V48.82C144.306 49.276 144.474 49.66 144.798 49.972C145.134 50.284 145.674 50.44 146.394 50.44H146.43C147.69 50.44 148.422 50.068 148.614 49.324H151.422V49.348C151.422 49.552 151.398 49.756 151.35 49.96C151.302 50.152 151.182 50.392 151.002 50.656C150.81 50.92 150.558 51.148 150.246 51.34C149.934 51.532 149.478 51.7 148.878 51.832C148.278 51.976 147.582 52.048 146.778 52.048H146.106ZM159.063 46.096H161.751L158.367 52.96C158.043 53.596 157.707 54.064 157.359 54.352C157.011 54.64 156.543 54.772 155.991 54.772H152.091V52.864H155.163C155.367 52.864 155.475 52.792 155.475 52.66C155.475 52.588 155.367 52.36 155.175 51.976L152.091 46.096H154.971L157.047 50.452L159.063 46.096Z" fill="#201B21"/>
</svg>
